<svg xmlns="http://www.w3.org/2000/svg" viewBox="0 0 960 560"><defs><style>.cls-1{fill:#fff;stroke:#000;stroke-miterlimit:10;}.cls-2{fill:#e82d3b;}</style></defs><title>Plan de travail 1</title><g id="Calque_2" data-name="Calque 2"><path class="cls-1" d="M80.19,150.08H93.76l15,24.21,15-24.21h13.58v57.25H125V170l-16.11,24.45h-.33L92.62,170.2v37.13H80.19Z"/><path class="cls-1" d="M151.18,150.08h43.1v11.2H163.61V172.9h27v11.2h-27v12h31.08v11.2H151.18Z"/><path class="cls-1" d="M225.6,149.67h11.61l24.53,57.66H248.58l-5.23-12.84H219.14l-5.23,12.84H201.06Zm13.25,33.69-7.61-18.57-7.61,18.57Z"/><path class="cls-1" d="M270.58,150.08h12.59V196h28.54v11.37H270.58Z"/><path class="cls-1" d="M341.65,208.15a37.91,37.91,0,0,1-12.84-2.25A34,34,0,0,1,317.36,199l7.44-8.91a37.35,37.35,0,0,0,8.06,5.07,21.53,21.53,0,0,0,9,1.88,11,11,0,0,0,6.09-1.43,4.51,4.51,0,0,0,2.17-4v-.16a5,5,0,0,0-.45-2.17,4.56,4.56,0,0,0-1.72-1.76,18.14,18.14,0,0,0-3.53-1.64q-2.26-.82-5.86-1.72a71.18,71.18,0,0,1-7.87-2.37,22.14,22.14,0,0,1-6-3.23,13.05,13.05,0,0,1-3.81-4.78,16.6,16.6,0,0,1-1.35-7.11v-.16a16.59,16.59,0,0,1,1.46-7.07,16.11,16.11,0,0,1,4.1-5.44,18.44,18.44,0,0,1,6.31-3.52,25.34,25.34,0,0,1,8.08-1.23,34.25,34.25,0,0,1,11.57,1.88,33.58,33.58,0,0,1,9.69,5.4L354.24,166a41.55,41.55,0,0,0-7.52-4.13,19.24,19.24,0,0,0-7.36-1.51,8.91,8.91,0,0,0-5.52,1.43,4.35,4.35,0,0,0-1.84,3.56v.16a5.15,5.15,0,0,0,.53,2.41,4.82,4.82,0,0,0,1.93,1.84,18.15,18.15,0,0,0,3.81,1.55q2.42.74,6.11,1.72a58.78,58.78,0,0,1,7.75,2.58,21.67,21.67,0,0,1,5.74,3.43,13.11,13.11,0,0,1,3.53,4.7,16,16,0,0,1,1.19,6.46v.16A17.72,17.72,0,0,1,361,198a15.52,15.52,0,0,1-4.31,5.56,19.37,19.37,0,0,1-6.59,3.43A28.66,28.66,0,0,1,341.65,208.15Z"/><path class="cls-1" d="M411.41,161.69H394V150.08h47.43v11.61H424v45.63H411.41Z"/><path class="cls-1" d="M478.88,208.31A31.22,31.22,0,0,1,466.69,206a30.29,30.29,0,0,1-9.61-6.3,28.17,28.17,0,0,1-6.3-9.32,29.35,29.35,0,0,1-2.25-11.49v-.16a28.91,28.91,0,0,1,2.29-11.49,29.29,29.29,0,0,1,16-15.78,33.13,33.13,0,0,1,24.41,0,30.31,30.31,0,0,1,9.61,6.3,28.17,28.17,0,0,1,6.3,9.32,29.38,29.38,0,0,1,2.25,11.49v.16a29,29,0,0,1-2.29,11.49,29.28,29.28,0,0,1-16,15.78A31.51,31.51,0,0,1,478.88,208.31ZM479,196.7a17.18,17.18,0,0,0,7-1.39,15.89,15.89,0,0,0,5.44-3.84,18.12,18.12,0,0,0,3.52-5.68,18.79,18.79,0,0,0,1.27-6.91v-.16a19.12,19.12,0,0,0-1.27-7,17.17,17.17,0,0,0-9.12-9.61,16.8,16.8,0,0,0-7-1.43,17.12,17.12,0,0,0-7,1.39,16,16,0,0,0-5.4,3.84,18.11,18.11,0,0,0-3.52,5.68,18.73,18.73,0,0,0-1.27,6.91v.16a19,19,0,0,0,1.27,7,17.26,17.26,0,0,0,9.08,9.61A16.71,16.71,0,0,0,479,196.7Z"/><path class="cls-1" d="M545.12,150.08h22.33a33.88,33.88,0,0,1,12.31,2.17,29.1,29.1,0,0,1,9.65,6,26.81,26.81,0,0,1,6.26,9,28.45,28.45,0,0,1,2.21,11.25v.16A28.73,28.73,0,0,1,595.66,190a26.68,26.68,0,0,1-6.26,9.08,29.61,29.61,0,0,1-9.65,6.05,33.29,33.29,0,0,1-12.31,2.21H545.12ZM567.45,196a19.44,19.44,0,0,0,7-1.23,15.11,15.11,0,0,0,5.44-3.52,16.5,16.5,0,0,0,3.52-5.4,18.26,18.26,0,0,0,1.27-7v-.16a18.67,18.67,0,0,0-1.27-7,16.33,16.33,0,0,0-3.52-5.48,15.6,15.6,0,0,0-5.44-3.56,18.9,18.9,0,0,0-7-1.27h-9.73V196Z"/><path class="cls-1" d="M609.64,150.08h12.6v57.25h-12.6Z"/><path class="cls-1" d="M636.55,150.08h43.1v11.2H649V172.9h27v11.2H649v12h31.08v11.2H636.55Z"/><path class="cls-1" d="M715.88,150.08h43.59v11.37h-31V173.8h27.32v11.37H728.47v22.16H715.88Z"/><path class="cls-1" d="M797.33,208.31A31.22,31.22,0,0,1,785.15,206a30.28,30.28,0,0,1-9.61-6.3,28.17,28.17,0,0,1-6.3-9.32A29.37,29.37,0,0,1,767,178.87v-.16a28.9,28.9,0,0,1,2.29-11.49,29.28,29.28,0,0,1,16-15.78,33.13,33.13,0,0,1,24.41,0,30.3,30.3,0,0,1,9.61,6.3,28.19,28.19,0,0,1,6.3,9.32,29.38,29.38,0,0,1,2.25,11.49v.16a29,29,0,0,1-2.29,11.49,29.29,29.29,0,0,1-16,15.78A31.52,31.52,0,0,1,797.33,208.31Zm.16-11.61a17.19,17.19,0,0,0,7-1.39,15.88,15.88,0,0,0,5.44-3.84,18.12,18.12,0,0,0,3.52-5.68,18.76,18.76,0,0,0,1.27-6.91v-.16a19.09,19.09,0,0,0-1.27-7,17.16,17.16,0,0,0-9.12-9.61,16.8,16.8,0,0,0-7-1.43,17.12,17.12,0,0,0-7,1.39,16,16,0,0,0-5.4,3.84,18.14,18.14,0,0,0-3.52,5.68,18.73,18.73,0,0,0-1.27,6.91v.16a19,19,0,0,0,1.27,7,17.26,17.26,0,0,0,9.08,9.61A16.7,16.7,0,0,0,797.5,196.7Z"/><path class="cls-1" d="M839,150.08h26.17q10.88,0,16.68,5.81,4.91,4.91,4.91,13.08v.16q0,7-3.39,11.33a19.66,19.66,0,0,1-8.87,6.42l14,20.45H873.8L861.53,189h-9.9v18.32H839Zm25.35,27.81q4.66,0,7.16-2.21a7.48,7.48,0,0,0,2.5-5.89v-.16a7.31,7.31,0,0,0-2.62-6.13,11.56,11.56,0,0,0-7.28-2H851.64v16.44Z"/><path class="cls-2" d="M254.15,243.43c-.26-.27-.39.39-.3-.12C254.09,243.26,254.28,243.25,254.15,243.43Z"/><path class="cls-2" d="M280.94,330.62a2.72,2.72,0,0,1,2-.81,1.81,1.81,0,0,0,1.71-1c.09-.13.41.73.6.37a1.31,1.31,0,0,1,0-.15l.15-.42-.07,0c-1.51-.45-1.91-2.42-1.9-4.08l.25,0c0-.32-.85-.21-.91-.52.13-.08.24,0,.39-.2-.45.18-.47-.34-.83-.28.1-.2.43-.37.54-.61l-.55.12c-1.34.21-.47-1.05-1.35-1.3.12,0,.24,0,.32-.13-1.17-.54-1.69-1.75-2.47-2.66a1.65,1.65,0,0,0,.68-.32.87.87,0,0,1-1-.29c.46-.39-.71-.25-.58-.72l.13,0c-.67,0,.14-.52-.61-.4l.34-.35c-.79.25.21-.54-.26-.56l-.15.08c-.27-.11.05-.38-.16-.5l.08-.06c-.39-.32-.09-.76-.67-.48.4-.36.4.3,1-.24-1.28-1.07-1.72-2.58-2.33-4,.17-.26.2-.39.41-.52-.18-.09-.33-.48-.69-.48,0,0,.26-.21.26-.3.12-.34-.77,0-.62-.4a.81.81,0,0,0,.62-.12c-.56-.05-.63-.4-.89-.62a.6.6,0,0,0,.39,0c-.64-.1-.1-.61-.54-.75l.38,0c.25-.6-.77.15-.67-.33.14,0,.27,0,.41-.07-.76-.11-.77-.77-1.12-1a.43.43,0,0,0,.15,0c-.23-.36-.18-.83-.62-1.16.1-.21.87-.26.58-.62-.69.27-.55-.59-1.25-.06,0-.39,0-1-.28-1.19.32.06.79-.48,1-.21l.35-.37c.3-.07,0,.26.32.06-.08-.14-.5-.46-.43-.64-.52-.12-1.41-.09-1.65-.5.34.11.73-.39.9-.29l-1.56-.15c-.08-.14.54-.22.29-.37a1,1,0,0,1-.5,0c.06-.08-.39-.55.28-.85.25-.16.23.19.42-.06-.1-.27-.34-.2-.45-.47l.09,0c0-.21-.48-.43-.79-.11,0,.13.4-.19.26.07a.77.77,0,0,1-.77-.54,1.23,1.23,0,0,0,.53,0,2.8,2.8,0,0,1-1.33-.86c-.33.1.65,0,.49.07.29-.68-1-.88-.47-1.54.08.05-.46.19-.37.16,0-.27.44-.41.21-.52.28-.11-.16-.18-.3-.32s.12-.09.2.05c-.32-.16-1.05-1-.82-1.65-.18.07-.79-.12-.81-.26l.45-.09c.22-.2-.17-.41.19-.55-.62-.11.78.9.26.66.34-.21-.86-.29-.24-.4-.1-.25-.67-.34-.33-.71,0,.09.67,0,.58-.18s-.24,0-.47-.29l-.23-.13c-.43.12,0-.34-.48-.06.34-.15-.37-.46.34-.64l.57-.12c-.09-.14-.66-.08-.95-.13a.67.67,0,0,1,.24-.13c-.86.23,0-.39-.76-.38.2-.42-.23-.84.26-1.16-.33-.17-.71-.31-.61-.66a.44.44,0,0,0,.33.07c.2-.26,0-.23-.23-.36.14,0,.39-.51.63-.8-.33-.17-.76,0-1.05.11.77-.48-.75-.55-.07-1.06.14.05.52.24.67,0,.77-.48-.76-.28-.46-.77l-.67.3c.39-.29-.56-.43.16-.6-.29,0,.1-.5-.57-.26.4-.78-.78-1.38.34-2.1-.14-.05-.09-.3-.42-.16s.33.12.09.25c0-.07-.24,0-.33,0,.1-.23.11-.4.73-.38.3-.54-1.29-.1-1.18-.71.29-.06.39-.13.3-.27l-.57-.16c0-.38.59-.38,1.06-.53-.14-.16-.18-.39-.56-.37l.54-.4c-.39.29-.33-.07-.48-.12l.14.05c.19-.09,0-.27-.09-.36a.7.7,0,0,0-.4.51c-.24,0-.23-.19-.51-.25.48-.09.25-.4.25-.56s-.48-.07-.47-.12c.24-.07,0-.29.34-.25.09,0-.2.2,0,.23.15-.16.58-.27.2-.41s-.91.31-.71-.1a2.43,2.43,0,0,0,.52,0l.16-.38-.43.11c.1-.07.14-.05.19-.09-.48,0-.27-.43-.8-.35-.09-.14.2-.41.21-.57l0,0c.2-.25,0-.45-.37-.52l.1,0a.46.46,0,0,0-.42-.37c.25-.34,1.59-.55,1-.67-.09-.25-.9-.17-1.14,0,.16-.54-.69-.85-.15-1.46-.19,0-.29.06-.43,0,0-.72-.92-1.26-.23-2,.24.14.43-.11.67-.19-.43,0,.34-.31-.33-.17-.38.13-.57.17-.68.4-.32-.34-.5-.94-.2-1.27-.15.16-.29.11-.43.06.62-.15.63-.47.35-.63l-.39.08.34-.26c-.15,0-.81.14-.52-.19a1.63,1.63,0,0,0,.38-.18c-.38-.14-1-.3-.75-.64l.49-.37c-.09-.09-.47-.17-.58.07.2-.52.16-.81.59-1.08a2.61,2.61,0,0,1-1.91-2.28l.29-.06c.19-.31-.52,0-.38-.18.29,0,.53-.35.91-.28.19-.42-.62-.26-.81-.43-.38.08.29.09-.19.2-.14,0,.14-.53-.43-.41a2.07,2.07,0,0,1,.86-.24l-.33-.11c.57-.45,1.34.18,2.05-.32l-.15-.16c.52-.36.81.28.86-.25a1.76,1.76,0,0,0-1.38.23c-.29-.36-1.38.23-1.48-.23.29-.23.19.33.62.1s-.39-.34-.29-.57c-.14.27-.76.28-.9.18.19-.31.57,0,.52-.36-.34.05-.67-.16-.81.16-.76.12.09-.4-.52-.39.47-.27,1.28-.06,1.43-.49-.47.22-.81-.21-1.48.21a1,1,0,0,1,.81-.32c.24-.29-1-.18-.1-.56l-.52.1c.14-.11.24-.24.48-.43,0-.18-.86-.33-.1-.57-.1,0-.19-.43-.66-.11-.24.35.47.15-.19.53.52-.36-.19-.33-.43-.4l.28-.12c-.14,0-.14-.26-.47-.21a.51.51,0,0,0,.42-.18l-.47.06c-.34-.26.75-.34.51-.63l.43.13c-.09,0,.28-.28.09-.39-.43.08-1,.13-1.29.18-.24-.12.43-.24-.05-.28l.57.07c.15,0,.61-.39.51-.63s-.87-.15-1,.17c0-.12.14-.38.47-.38-.24-.23-.42.19-.76,0,.23-.19.51-.63.84-1l.76,0-.05-.17c.62,0,.38-.26,1-.33,0-.15-.2-.22-.38-.28-.79.66-1.38.06-2.18.45-.39-.38,1.92-1,.45-1-.19.16-.9.16-.56.36,0-.32-.9.1-.68-.36.43.13.75-.57,1.37-.39-.28.07-.14.28,0,.31.28-.23.84-.27.74-.57s-.25-.39-.67-.2.15.26-.37.31c-.29-.3.41-.62-.48-.46.14.2-.33.44-.65.55l-.29-.19L254,256c.08-.5-.61.08-.68-.35l.55-.42c.58-.1,0,.67.82.28-.06-.28-.53-.2-.4-.53.1,0,.15.09.25.12s1.11-.63.29-.75c-.34-.09-.33.07-.66.18-.26-.38-.64-.38-.8-.63.66-.19-.12-.5.64-.45-.32.28,0,.87.62.79.7-.43,0,.37.82.18-.11-.34.64-.61,1.1-.84,0-.11-.24-.12-.34-.15-.47.13-.42.25-.89.44,0-.42-.42-.69-.94-.73.18-.21.65-.35.75-.21a2.47,2.47,0,0,1-.46-1.38c-.64.57-.36-.41-.9,0a1.15,1.15,0,0,1-.92.7c0-.16.33-.12.46-.24-.48,0,.54-.54-.17-.46.4.31.94-.28,1.55-.43-.44-.17.42-.15.31-.44A2.94,2.94,0,0,1,254,250c.4-.64-.42-1-.59-1.39.21-.31.92-.46.94-.71s-.63.47-.48,0l.14,0c-.2,0,.16-.85-.82-.55l.75-.19c0-.09-.15-.09-.25-.11.23-.1.4-.27.6-.22.39-.43-.28-.43-.4-.67l-.35.34c-.5-.27-.21-.73-.53-1.06l.41-.17-.34-.13c.42-.12.58-.45.19-.43l1.26.18c-.16.28-.57,0-.92.31s0,.57.38.46c0-.16-.11-.13-.3-.18.54-.3.62-.07,1-.13-.06-.06.07-.25-.11-.18a.58.58,0,0,1,.57.4c-.29-.07-.31.24-.5.25.51-.2.76,0,.75.34-.48.46.62.41.61.83a2.9,2.9,0,0,1-1.35-.06c-.16.33.12.24,0,.57.42-.05,1-.22,1.39,0l-.37.17c.3.18.86,0,.9.33a10.32,10.32,0,0,0,.41,1.7l-.37.17c.9-.08.61.7,1.1.89-.15.7.83,1.09.29,1.62a6.48,6.48,0,0,1,1.51,2.74l-.62,0c.47,0-.28.24-.13.39.37-.37.67,0,1.05.05-.27.62.41,1,.94,1.32l-.38.15c.87.17.41.88.47,1.44-.14.11-.47.33-.37.47.72.07.73.23,1.25.52a2.18,2.18,0,0,1,0,1.23c1.24.85,1.06,2.2,2,3.22l-.43.23c1.33.85.87,2.54,1.67,3.37l-.81.14c-.15.38.42.64.95.4-.14.38.61.66,0,1,0,.36.48.28.66.51A1.8,1.8,0,0,0,266,271v-.16c-.19,0-.53.08-.53.24.28.16,0,.88.9.38-.35.8.87,1.36.33,2.19.24-.13.33,0,.53,0,.17.56-.17,1.3.39,1.62-.1.13-.47,0-.44.22s.33-.09.53,0c.74.77,0,2,.39,2.76.91,1.32,1.1,2.92,1.59,4.28l-.19,0c.85.26-.42,1.31.77,1.37-.15.16,0,.45-.35.47.61.22-.17,1.18.62,1.53,0-.05,0-.07-.14-.1-.26.66.46,1,.25,1.65a.56.56,0,0,0-.38-.08c-.29.33.95.29.08.68,0,.12.48,0,.43-.12,0,1.35,1,2.51,1.6,3.74-.24,1.09-1.5.53-.59,1-.15.11.36-.06.18,0,.34.2-.86.75-.33.8.53-.25.35,0,.69-.07-.18.68-.64.95-.08,1.26l-.3.06c1,.26.74,1,1.82,1.14.53,1.41,1.22,2.72,1.85,4l.94,2c.32.65.63,1.31.91,2,.8,2.77,2.32,5.15,3,8-.46.95-.4,1,.21,1.52-.13,0-.18,0-.27.09.61-.24.28.45.88.25a26.14,26.14,0,0,0,1.41,2.81c-.14-.12-.65,0-.53.2h.47l-.15.11a.51.51,0,0,0,.63-.15c1.81,2.12,1.85,5.17,3.47,7.35a4.19,4.19,0,0,0,1.27,1.84l.12.77.66,4.15-1.53.62a12.55,12.55,0,0,1-4.09.85,25,25,0,0,1-4-.11,6.19,6.19,0,0,1,.59-.77A3.16,3.16,0,0,1,280.94,330.62Z"/><path class="cls-2" d="M254.38,243.8c-.27.21-.33.51-.81.51A6.39,6.39,0,0,1,254.38,243.8Z"/><path class="cls-2" d="M253.84,251.2c.09,0-.09.14-.13.18s-.34,0-.2-.16C253.56,251.29,253.69,251.22,253.84,251.2Z"/><path class="cls-2" d="M254.26,252.83a.76.76,0,0,1-.73-.35Z"/><path class="cls-2" d="M253.69,254.7c-.18.21-.32.22-.38.05A1,1,0,0,1,253.69,254.7Z"/><path class="cls-2" d="M254.35,254.57c.05.12-.09.24-.22.35C254.37,254.84,253.88,254.7,254.35,254.57Z"/><path class="cls-2" d="M254.69,258c0,.07.34.15.05.33C254.93,258.21,254.26,258.12,254.69,258Z"/><path class="cls-2" d="M255.62,259.37c0,.05,0,.09.05.12a.29.29,0,0,1-.38,0Z"/><polygon class="cls-2" points="265.09 286.66 264.91 286.53 265.19 286.47 265.09 286.66"/><path class="cls-2" d="M268.88,298.87c.23.11-.22.2-.25.24C268.55,299,269,299.05,268.88,298.87Z"/><polygon class="cls-2" points="272.55 304.9 272.52 304.85 273.09 304.66 272.55 304.9"/><path class="cls-2" d="M219.65,294.28c-.54,1.56.83-.61-.22,1.07A.9.9,0,0,1,219.65,294.28Z"/><path class="cls-2" d="M232.44,338a44.41,44.41,0,0,1-6.82,5.57,32,32,0,0,0-6.76,6.11c-.44.51-.46-.74-1.41.47a81.73,81.73,0,0,1-6.44,7.79c-2.46,2.79-5.22,5.56-6.88,8.79l-.06-.49a4.84,4.84,0,0,0-.45,2.2c0,.8.06,1.58,0,2.31-.16,0-.22-.48-.44-.14a1,1,0,0,1,.24.59c.07.28.11.62.18,1a3.34,3.34,0,0,0,.65,1.61c0,.6-.41.7-.22,1.49l.44.27.43.24a29.51,29.51,0,0,1,3.16,2.47,7.19,7.19,0,0,0,4.1,1.71c-.17.08-.49.1-.29.28a41.43,41.43,0,0,0,15.9-1.31c-.17.23-.29.61.06.75.14-.61,1.72-1.09,3.08-1.52.76.42,2.26-1.06,4-1.14l-.11.16c1.05-.89,1.86-.1,2.65-1.05l.87.26c.32-.93,1.83,0,2.71-.71l-.08-.16c.87-.45,1.47-.16,2.29-.55l.11.07c1.95-.79,3.24-.68,3-1.28.85.29-1.88.78-.56,1.18,6.43-2.55,13.13-4.78,19.47-7.55.82-.08,1.32-.2,1.58-.05a16.31,16.31,0,0,0,2.75-1.77c-.2.11.55.11.89,0,1.25-.33.92-1.25,2.28-1.61-.41.4-.48.67-.21.8.83-1,2.27-1.62,3.4-2.45-.14.2-.4.42-.26.57,1-1.25,2.51-1.22,3.46-2.24l-.24.58c2.08-.73.15-1,1.87-1.73-.32.33-.11.37-.1.54,1.15-1.44,3.57-2.84,4.88-4a.14.14,0,0,0,0,.17,36,36,0,0,0,4.63-3.67c.69-.34.37.86,1.85-.49-.5-.49,2.36-2.45.93-2.31.67-.52,1.57-1.15,2.35-1.81a11.08,11.08,0,0,0,1.77-1.82c-.35.73,1.23.07.26,1.1l1.09-.43c.1.33-.87.7-.35.74.25-.26.69-.81,1.15-1.34a8.34,8.34,0,0,1,1.12-1.27,17.22,17.22,0,0,1,2-4.41c-.42,1,1,.09.65.69l.41-1.59c.21-.78.37-1.59.37-1.59.39-.58.55.24,1-.69-.19-.08,0-.5,0-.84.11-.08.51-.69,1-1.25s.95-1.13,1.34-1c.41-.09-.51,1,.14.54.72-1.09.55-1.27,1.26-2.36l.1,0c.59-.65,1-2.33.24-1.73-.32.5.49,0-.14.68a7.51,7.51,0,0,1,1.26-3.19c-.12.43.07.49.16.74.21-.88.45-1.76.74-2.64s.64-1.75.95-2.66c-.29-.17.26.92,0,1.09,1.52-2,1.52-4.88,2.84-6.54-.06.34-.53,0-.43,0,.45-1.09.91-.87,1-1.66.32,0,.2-1,.34-1.74-.09-.45.2-.16,0,.52,0-.57.3-1.93.6-3.46.13-.77.29-1.57.48-2.33.1-.38.2-.75.31-1.1s.18-.69.28-1c-.2,0-.47-1.65-.36-2.21l.42.29a3.2,3.2,0,0,0,.32-1.15c0-.43.09-.81.29-.83-.25-.65-.15.56-.23,1.71s-.07,2.26-.15,1.39c.45-.38-.35-2.42.21-2,.13-1.17-.33-2.34.2-3.42-.1.32.55,1,.6,0,.05-1.68-.15-.49-.28-1.85l-.18-.85c-.44-.06.07-1.48-.43-.87.38-.21-.22-2.39.5-2.25l.59.21c-.07-.73-.67-1.15-1-1.69,0-.1.15-.29.24-.26-.89,0-.08-1.7-.9-2.43.11-1.51-.7-3.6-.38-4.4a12.58,12.58,0,0,1-1.56-3c.18.19.34.49.54.48-.08-.83-.39-.91-.83-1.47.2.08-.29-1.63-.58-2.52-.86-.73-1-.11-1.32,0,0-.65-.56-1.15-1.22-1.57s-1.36-.79-1.6-1.48c.36.11,1.49.63.93-.1-.12-.66-.65-.85-1.25-1a3.79,3.79,0,0,1-1.9-.74v.83c-.19-.37-.75-.48-1.19-.59s-.77-.16-.59-.49a3,3,0,0,1-1-.22c-.35-.07-.62-.07-.6.3a6.25,6.25,0,0,0-3.87-.15,9.28,9.28,0,0,1-3.54.47c-.3.26-1.21.6-.87.83.74.06.67-.65,1-.51a.43.43,0,0,0-.27.48c-.8.21-1.42.5-1-.4-1.9.54-1.09,2-3.28,3.08-.07-.3-.29-.3-.86.14l-.83,1.19c-1.35.83-1.12,0-1.45-.39-.65.57-1.5,1.2-1.58,1.73l-.61.07-.6.08c.88-.13-.36.68-.6,1l.24-.35c-.26-.07-.94.68-1.28,1.05.29.16,1.14-.41,1.63-.68-.2.44-.75.84-1,1.41-.18-.5-1.28.65-1.81,1.07s-.34.92-.52,1.06c-.19-.17-1,.84-.76.16.14-.24.61-.24.78-.7-.5.21-.77-.15-1.32.82-.4.74.82.55-.48,1.39.2-.37.11-.56.21-.9l-1.19.83.28.35c-.21.06-.15-.06-.25,0,0,.62-1.4,1.68-1.22,2.27a19.68,19.68,0,0,1-1.72,1.4l.06-.12a4,4,0,0,0-1.52,2.18l-.05-.09a5,5,0,0,0-1.05,1.85c-1,.72-1.59-.69-1.89.69a2.33,2.33,0,0,0-.33.68l-2.4-2.16c.36-.64.24-1.23-.17-1.15,1.8-1.17,3-3.36,4.88-4.26.09-.34-.13-.28.22-.81,2.29-2.12,4-5.18,6.17-6.58-.42.82.31.32.52.46.14-.84.87-.46.5-1.09-.37-.18-.48-.36-1.13.23a21.44,21.44,0,0,1,3.47-4.5c-.44.32-.32-.08-.19-.48.45.47,1.31-.6,1.67-1.61l-.25-.33.7-.35c.11-.4-.46-.8.38-1.48a.68.68,0,0,0,.51,0c.29-1.08.54-2.65,1.39-3.49l.94-.57c.18-.47.26-1.36-.29-.67,1.21-1.59,1.8-2.72,2.51-3.08a49.22,49.22,0,0,1,1.18-5.73,23.92,23.92,0,0,0,.79-5.35l.29.08c.22-.86-.52-.4-.38-1,.32.24.51-.71.94-.1.11-1.31-.82-1.44-1.2-2-.39,0,.45.44-.06.49a3.44,3.44,0,0,1-.29-.75c-.19-.33-.41-.65-.69-.56.06-.35.51-.42.79-.41l-.29-.23-.33-.18c0-.52.55-.39,1.12-.12s1.15.63,1.23-.05l-.49-.64c.08-1.06,1.72,1.57.8-.41-.82-.63-1.91-.58-1.63.15a1.13,1.13,0,0,0-1.37-.36c-.37.12-.65.16-1.32-.28-.09-.27.19-.1.5.06s.58.39.63.09c-.12-.47-.55-.62-.92-.76s-.81-.16-1.08-.41c.62.55-.27.77-.71.66-.7-.54.75-.32-.4-.79-.31.22-1.44.16-.59.66a.7.7,0,0,1-.9,0,1,1,0,0,0-1-.08c-.35-.6,1.56-1,.15-1.5.07.28-.4.37-.8.52s-.73.39-.39.8c-.53-.19-.58-.6-.13-.88-.82-.42-2,.88-2.3-.16l-.27.54c-.27-.16-.65-.26-1.11-.53a10.69,10.69,0,0,0-1.46.41c-.49.15-.89.21-.92-.19-.24.1-2,.43-1.18.83,1.11.1,1.15-.61,1.85,0-.84-.48-1.51.33-2,.67l-.16-.28c-.33.18-1.17.34-1.3.72.22-.24,0-.41-.27-.4l-.24.55c-1.34.68-.56-.7-1.94-.09,0,0,1-.7,1-.7-.21.15-.82-.14-1.49.28-.13.51-.47,1.18-.58,1.58-.75.48-.54-.31-1.18.4l.87-.88c.11-.19-1-.39-2.07,0-.66.38-1.48,1.45-.31,1.18-.53.24-1.39.33-1.08-.14-1.16.67.34.35-.61,1.06-.54-.07-2,.14-3,.14,0,0,.19-.3.4-.58l.41-.57-.75.32c.72-.94-.67-.18-.39-1a3.94,3.94,0,0,0-1.48,1c1.87.14-1,2-.2,2.58-1.83,1.19-2.25-1.3-3.58,1.07.44,0-.16,1.14.91.23-1.23.59-.36,1.23-1.92,1.71.85-.91-1.57-.13-.34-1.44,0,.31.95-.29,1.14-.5-.66,0-.34-.83-1.57-.12-.72.49-1.71,1.14-1.32,1.44s1.08-.74.88,0c-1.34,1.06-2,.58-2.1,1.71.86-.64,1.37-.35,1.54,0l-.92.85,0-.41c-1.8.88-.16.82-1.81,1.8l-1.11,0c0-.77,2.46-1.37,1.66-1.95-1.09.64-1.16,1.28-2.25,1.78.17-.22.45-.45.61-.67-.38.24-1.47-.5-2.51,1.15-.59.77,0,.41.19.7-1.58,1.27-1.77,2-2.76,2.83-.22-.69-1.83,1.39-1.16,0a6.46,6.46,0,0,0,3.2-2.92c-1.09-.21,1.36-.85,1.24-1.77-1.34,1-1.75.27-2.28,0a2.68,2.68,0,0,0-.79.93c.15.51.61.12.95.5a10,10,0,0,0-3.2,3.37c-.61.23-.8-.29-.26-.78-.79.76-1.6,1.55-2.45,2.28l-1.27,1.07-1.2,1.06c1.51-.38-1.51,1.77-.39,1.59.91-.66,2-.91,1.8-.23-.52.45-.23-.26-.55-.18-.31.92-1.46.47-1.58,1.56,1.21-1.57-.42-1-.61-1.65-.77,1.27-.27-.35-1.29.66a36.21,36.21,0,0,1-2.67,4.09c-1.72,1.18-3.25,3.92-4.23,5.41-.81.57-1-.36-1.71.4-.7,1,1.15-.28-.17,1v-.22c-.18.52-2.2,2.48-1.63,3.46l-.35-.87a1.86,1.86,0,0,0-.34.87c-.22-.12-.62.09-.46-.46-1.08.64-1.13,2-1.72,3.09l.78-.44a11.37,11.37,0,0,1-1.27,2.42,16.66,16.66,0,0,0-1.25,2.36l-.37-.25-.3,1.17c-.25-.44-1,.4-.94,1.13,0,0,0-.21,0-.51l.15-1.11.22-1.63c.62-.65.05,1.09.69.8a3,3,0,0,0,1-2.4,2.35,2.35,0,0,0-.41,1.24c-.65-.07-.16-1-.25-1.7-.17.33-.56.73-.43.89a6,6,0,0,1,1-2.54c-.21.84.56-.2.55.16-.42-.35,0-1.46.92-2.69,1.12-.57,1.22-2.61,2.33-4a6.82,6.82,0,0,1-.46,2.93c.83-.76.65-1,1.48-1.79a3.77,3.77,0,0,1,.31-2.65l.37.18c.61-1.17.11-1.54,1.21-2.81,1-1,1.94-2.14,2.82-3.18s1.8-1.94,2.54-2.73l.35.21c.14-1.53,2.59-3.1,3.46-4.54,2.29-1.61,4.23-4.36,5.81-4.69a54.55,54.55,0,0,1,11.48-8.5l-.44.94c.57-.83.68,0,1.41-.52-1.12.1.77-1.15,1.15-1.78,2.24-.63,4.57-2.44,6.29-3.59l.24.34a7.08,7.08,0,0,1,2.94-1.6c1.14-.34,2.38-.59,3.59-1a2.68,2.68,0,0,0,1.61,0c1.16-1,1.89-1.2,3.87-2a19.45,19.45,0,0,1,5.64-.17,15,15,0,0,1,2.23-.21c.38,0,.76,0,1.14,0l1.15.11a17.49,17.49,0,0,1,2.33.44,15.78,15.78,0,0,1,2.3.87,13.31,13.31,0,0,1,4.16,3l.87,1c.27.35.49.73.74,1.1a9,9,0,0,1,.68,1.15,10.8,10.8,0,0,1,.57,1.22l-.3.62a11.52,11.52,0,0,1,.94,5.08,19.08,19.08,0,0,1-.87,5c-1,3.14-2.35,5.75-3.14,8l-.53-.77c-.87,1.24-1.34,3.16-.66,3.08-.91,1.23-1.47,3.53-2.53,4-.93,1.25-.64,1.83-1.25,3a64.34,64.34,0,0,0-4.15,5.88l.47-.55c0-.37-.22-.59-.69,0-.46,1-2.61,3-1.18,2.78-2.35,2.11-4.37,5.92-7.07,7.56.37,0-.13.58-.24.94-1.52,1.56-3.43,2.83-4.82,4.16l-20.7,19.9,15.91-24.2a9.52,9.52,0,0,0,.74-1.32c.37-.28,0,.83.64-.06.32-.59-.27-.22.11-1,2.33-3.93,6.21-6.7,9.07-9.55a52.42,52.42,0,0,1,8.32-7.21c1.51-1.07,3-2,4.64-3a27.74,27.74,0,0,1,5.31-2.43l0,.21a7.49,7.49,0,0,1,4.46-.83,15.21,15.21,0,0,0,4.22.08c.3.18.9.35,1.35.54s.73.38.44.47a8.45,8.45,0,0,1,3.75,1.78c1.3.94,2.53,2.06,3.82,2.9a2,2,0,0,0-.61-.46c1.88,2.36,3.89,4.31,4.84,7.3-.2-.25-.51-.73-.72-.73.19,1.18,1.91,2.25,1.21,3.19.23.62.61.3.44-.09A59.18,59.18,0,0,1,323.16,304c-.53,2.32-1,2.31-1.21,2.23s-.28-.27-.22,1.6c-.23.27.32.28.12.29.06,1.47-1.48,2-1.19,3,.65-.27.17.71.5.82a20.67,20.67,0,0,1-1.3,2.81,6.79,6.79,0,0,0-.68,2.51l-.24-.26a15.56,15.56,0,0,1-.8,4.06,14.44,14.44,0,0,0-.83,3.79,86.19,86.19,0,0,1-26.36,33.22,121.43,121.43,0,0,1-37.11,18.37,16.26,16.26,0,0,0-6.9,1.69c.1-.16.31-.25,0-.3,0,.68-2.4.76-2.56,1.45-5,1.26-9.53,2.56-14.67,3.69.8-.24,1.09-.86.13-.61l-.92.63-.2-.14c-.64.24-1.29.71-.57.77L227,384l-1.33.29c-.89.18-1.78.32-2.68.44a35.16,35.16,0,0,1-5.47.25,29.14,29.14,0,0,1-5.65-.77,18.84,18.84,0,0,1-5.74-2.49c-.46-.34-.92-.64-1.36-1s-.85-.81-1.25-1.23a12.85,12.85,0,0,1-1.93-3,7.81,7.81,0,0,1-.61-1.64,11,11,0,0,1-.41-1.68,12.51,12.51,0,0,1-.09-3.41,17.26,17.26,0,0,1,1.8-5.88,34.63,34.63,0,0,1,2.85-4.65c2.15-2.44,4.79-6,7.09-8.59a134.67,134.67,0,0,1,11.6-9.08c3.94-2.76,8-5.4,12.3-8.13a4.3,4.3,0,0,1-.6,1.37A12.46,12.46,0,0,1,232.44,338Z"/><path class="cls-2" d="M220.38,292.44c.44-.19,1.06-1.16,1.1-.14C221.15,292.27,220.6,292.67,220.38,292.44Z"/><path class="cls-2" d="M239.95,269.41c0-.09.39-.21.5-.23-.24.28-.29.7-.6.8C240.08,269.69,239.93,269.62,239.95,269.41Z"/><path class="cls-2" d="M245.56,264.33c.11.3-.93,1.54-1.62,2.2Z"/><path class="cls-2" d="M251.73,260.84c.63-.15.58.05-.08.52C251.51,261.27,251.68,261.05,251.73,260.84Z"/><path class="cls-2" d="M251.74,260a1.93,1.93,0,0,1,1.13-.41C252.7,259.42,251.87,260.53,251.74,260Z"/><path class="cls-2" d="M265,252.85c.31-.18.9-.76,1.34-.62C265.94,252.2,265,253.36,265,252.85Z"/><path class="cls-2" d="M271.24,249.59a1.14,1.14,0,0,0,.54-.21c.44,0,.1.33-.21.48Z"/><polygon class="cls-2" points="309.14 276.59 308.48 276.37 308.71 276.16 309.14 276.59"/><path class="cls-2" d="M309.93,327.22c-.2.76-.5.33-.6.42C309.65,327,309.52,328,309.93,327.22Z"/><polygon class="cls-2" points="291.28 351.58 291.46 351.43 291.77 351.94 291.28 351.58"/><path class="cls-2" d="M304.25,311.24c.19.71.48-.44.26.45C304.27,311.61,304.08,311.49,304.25,311.24Z"/><path class="cls-2" d="M357.41,298.34a2,2,0,0,1-1.67-.64,4.77,4.77,0,0,1-1-1.69,24.54,24.54,0,0,0-1.38-3.8c-.11-.28.84-.06.54-.68-1.43-2.3-1.05-6.24-.42-9.29l.25.16c.12-.58-.72-1.2-.67-1.81.16,0,.24.17.44,0-.48-.11-.32-1.07-.69-1.29.16-.25.54-.26.72-.59l-.57-.3c-1.36-.84-.12-2.33-.9-3.57.13.05.24.17.35.06-.88-1.84-1-4.18-1.43-6.32l.77,0,0,.66a.85.85,0,0,0-.75-.07c.56.14.67.87.76,1.51-.59.26.48,1.11.12,1.83l-.13-.07c.58.58-.39.79.31,1.28l-.48.32c.8.29-.47.76-.09,1.24h.17c.17.44-.25.63-.14,1l-.1,0c.15.94-.35,1.44.29,1.47-.53.29-.17-.91-.95-.46a37.74,37.74,0,0,1-.28,9.25c-.29.32-.4.53-.64.58.09.32,0,1.16.28,1.47,0-.1-.35.16-.4.32-.3.53.63.69.27,1.26a.51.51,0,0,0-.58-.32c.43.58.27,1.26.35,1.89-.1-.11-.14-.26-.34-.27.48.74-.28,1.2,0,1.84l-.34-.27c-.57.88.73.38.36,1.16-.09-.21-.24-.16-.39-.22.57.85.16,2.05.28,2.84a.23.23,0,0,0-.14-.06,11.7,11.7,0,0,0-.23,2.62c-.22.3-.87-.25-.88.64.74.09.06,1.53,1,1.15a5.88,5.88,0,0,0-.56,2.4c-.22-.38-1,.21-.91-.42l-.52.39c-.29-.12.18-.46-.22-.38,0,.31.11,1.26-.06,1.52.34.65,1.08,1.33,1,2.28-.2-.49-.85.1-.92-.22l1.15,1.56c0,.32-.59,0-.49.44.2,0,.28.23.41.4-.1.1-.07,1.32-.81,1.31-.31.08,0-.54-.37-.24-.11.57.13.65,0,1.23h-.1c-.19.35,0,1.22.51.9.1-.27-.45,0-.14-.36a1.86,1.86,0,0,1,0,1.77c0-.26-.22-.3-.38-.45a4.52,4.52,0,0,1-.74,3.3c.24.26-.15-.8.07-.81a15.44,15.44,0,0,0-1.58,1.67,2.08,2.08,0,0,1-1.88.81c.18-.12.2.45.17.36-.74.16-.74-.37-1.19-.12,0-.29-.57.15-1.08.19-.29.17-.1-.14.31-.16a3.37,3.37,0,0,1-2.17-.17,3.58,3.58,0,0,1-2-2.06c-.13.2-1.11-.43-1.25-.87l.46-.09c.08-.45-.52-1.22-.16-1.42-.38-.31,0,.44.36,1.05s.87,1.07.44.76c.09-.24-.22-.45-.48-.66s-.46-.41-.14-.44c-.14-.35-.39-.67-.56-1a.81.81,0,0,1-.1-.83c0,.17.72.27.58-.15-.27-.73-.26-.16-.57-.73l-.28-.34c-.44.08-.11-.69-.52-.29.33-.18-.48-1.06.26-1.15l.59,0c-.11-.32-.71-.4-1-.61,0-.05.14-.17.24-.17-.88.13-.1-.8-.85-1.06.18-.75-.3-1.77.19-2.2a2.08,2.08,0,0,1-.66-1.56c.1.11.15.27.35.27.2-.42,0-.48-.25-.81.15.06.39-.84.65-1.31-.34-.49-.79-.24-1.09-.25.8-.6-.78-1.42-.06-2.13.14.17.53.71.69.25.81-.59-.77-.89-.45-1.72l-.7.28c.4-.4-.56-1.09.19-1.1-.29-.23.13-.94-.57-.77.44-1.35-.72-3,.45-4-.14-.17-.07-.63-.42-.5-.36.35.33.39.08.53,0-.16-.24-.17-.34-.18.11-.41.13-.73.76-.42.33-.93-1.31-.76-1.16-1.9.3,0,.4-.08.31-.4l-.58-.55c0-.73.61-.49,1.1-.57-.13-.37-.17-.84-.56-1l.56-.55c-.4.4-.34-.27-.49-.43l.15.16c.2-.1,0-.52-.09-.73-.3.1-.36.56-.41.82-.24-.16-.24-.47-.53-.69.5,0,.26-.67.26-1s-.5-.32-.49-.42c.25,0,0-.56.35-.35.1.1-.2.3.05.46.15-.25.59-.3.2-.72s-.94.24-.74-.47c.15.16.35.16.54.26l.15-.67-.44,0c.1-.1.14-.05.2-.1-.49-.11-.31-.93-.85-1-.1-.3.18-.71.17-1l0,.05a.93.93,0,0,0-.43-1.11h.1a1.23,1.23,0,0,0-.49-.85c.22-.57,1.6-.53.94-1a.82.82,0,0,0-1.21-.34c.05-1-.87-1.8-.47-2.8-.21-.08-.3,0-.47-.2a7.74,7.74,0,0,0-.68-1.87,2.35,2.35,0,0,1-.24-1.71c.32.25.41-.17.64-.29-.49-.09.2-.51-.46-.3-.34.21-.53.28-.52.65a3.14,3.14,0,0,1-1-1.93c0,.26-.23.21-.41.17a.49.49,0,0,0-.09-.94l-.33.22.15-.45c-.19,0-.69.47-.66,0a1.13,1.13,0,0,0,.21-.37c-.24,0-.53.05-.75,0s-.38,0-.42-.25l0-.3,0-.31c-.16,0-.45.26-.34.46-.27-.46-.53-.57-.65-1.05-.49.56-.79.95-1.1,1.25s-.79.66-1.27,1.11l-.18-.23c-.45.07.25.48-.07.53-.13-.28-.65-.18-.71-.63-.62.24-.09.9-.21,1.28.27.28,0-.39.33,0,.07.12-.73.48-.31.9-.27,0-.56-.35-.7-.55v.48c-.84,0-.38-1.59-1.35-1.66l-.14.36c-.71,0,0-1.23-.71-.55,0,.51.51,1.28.92,1.11-.33.81.94,1.1.41,1.84-.42,0,.32-.65-.17-.77-.63.11-.25.87-.59,1.1.42-.24.72.38.66.66-.48.24-.31-.54-.71,0,.23.27.15.91.6.59.53.59-.52.47-.19,1.08-.57-.08-.73-1.21-1.32-.72.5.17.16,1.12,1,1.17a.61.61,0,0,1-.81-.34c-.48.19.34,1.29-.61.92l.4.37c-.21,0-.41.13-.75.17-.17.31.11,1.33-.59.94,0,.14-.38.84.26.81.52-.29-.09-.69.7-.6-.7,0-.27.67-.2,1l-.3-.09c0,.21-.19.53.06.77a.31.31,0,0,0-.45-.13l.35.36c-.08.72-.82-.2-1,.47l-.11-.62c0,.13-.47.16-.48.52.34.29.7.71,1,.95,0,.42-.51,0-.25.48l-.28-.66c-.1-.13-.78,0-1,.5,0,.36.38,1.07.8.68-.09.24-.47.47-.68.16-.09.59.45.11.51.66-.35.08-1,.52-1.47.74l-.48-.75-.13.33c-.38-.64-.49.06-1-.4-.17.2-.09.55,0,.83,1.15-.33,1,1.2,1.87,1.31-.1,1-2.24-.14-1.24,1.26.27-.08.76.57.71-.08-.27.53.72.66.16,1.2-.19-.6-1,.26-1.3-.61.26.14.34-.33.3-.47-.4.13-.83-.33-1,.26,0,.39-.18.88.28.95s.13-.56.54-.18c-.07.75-.82.66,0,1.21.06-.47.59-.43.92-.33l.06.58-.29-.19c-.46.76.52.41.21,1.19l-.75.2c-.5-.34.57-1.1-.36-1.21-.18.52.22.82-.15,1.25,0-.13,0-.29-.08-.42-.08.18-1.34.06-.83,1,.18.46.3.18.63.28-.1.88.19,1.22.12,1.78-.65-.26-.28,1-.83.21a1.36,1.36,0,0,0,.15-1.9c-.85.13.26-.65-.47-1-.2.69-.95.47-1.48.46-.08.19.09.43.14.57.46.2.51-.06,1,0a2.2,2.2,0,0,0,.16,2.1c-.29.21-.75,0-.74-.29a10.42,10.42,0,0,1-.59,2.84c.87-.45,0,1,.75.74.25-.45.87-.77,1.18-.45-.09.29-.34-.06-.53,0,.38.44-.78.48-.15,1-.13-.89-.94-.31-1.54-.56.26.68-.44-.09-.53.53a9.81,9.81,0,0,1,.5,2.19,2.19,2.19,0,0,0-.38,1.51c0,.55.16,1.09.15,1.49-.34.39-1,.08-1.18.52s.79-.36.42.41l-.14-.08c.14.24-.51,1.43.5,1.68l-.76-.25c-.07.15.1.28.18.41-.25,0-.48.17-.64-.07-.53.49.05,1,.1,1.56l.44-.34c.38.9-.05,1.51.13,2.38h-.44l.29.51a.36.36,0,0,0-.3.65l-.59-.65-.57-.66c.25-.39.55.4,1,.14s.23-1-.2-1.14c0,.31.06.33.22.56-.61.13-.6-.35-1-.58,0,.16-.15.41,0,.44a1.61,1.61,0,0,1-.4-1.19c.25.37.38-.21.56-.07-.55,0-.72-.56-.55-1.23.64-.47-.39-1.27-.19-2.06a3.07,3.07,0,0,1,1.19,1.23c.28-.48,0-.54.28-1-.4-.25-1-.44-1.23-1.09h.41c-.17-.59-.77-.63-.62-1.36.3-1.25.43-2.55.61-3.5l.41,0c-.78-.64-.07-1.82-.33-2.59.62-1.14.1-2.73.95-3.19a20,20,0,0,1,1.22-6.24l.45.54c-.29-.52.4-.15.44-.55-.59.28-.41-.71-.67-1.1a4.3,4.3,0,0,0,.69-3.18l.39.12c-.35-1.12.67-1.89,1.26-2.86.21,0,.64-.07.74-.39a4,4,0,0,1-.13-2.1,7.93,7.93,0,0,1,1.49-1.93,10,10,0,0,1,1.41-3.54c.67-1.1,1.31-2.15,2-3.47l.5.13a6.57,6.57,0,0,1,3.37-3.6,8.52,8.52,0,0,1,2.75-.83,13.62,13.62,0,0,1,2.64-.09l-.23.37-.21.37a3.16,3.16,0,0,0,1.34.26c.4,0,.74-.17.74-.48.76.59,2.3.85,2.27,1.75a1.6,1.6,0,0,0,.79.53,2,2,0,0,1,.82.36,28.65,28.65,0,0,0,2.08,3.14l-.14-.35c-.24-.05-.54.11-.41.45.48.36.69,1.85,1.34,1a8.27,8.27,0,0,0,.9,2.45,3.78,3.78,0,0,1,.46,2.3c.22-.19.37.13.59.23.32,1.2.14,2.58.77,3.43-.09.22-.51-.2-.43.29.16.27.34-.07.56.25.92,1.85.27,4,.67,5.74,1,3,1.12,6.31,1.55,9.22h-.2c.85.9-.49,2.38.72,3-.16.25,0,.89-.38.76.62.7-.23,2.22.59,3.23,0-.1,0-.16-.14-.26-.27,1.17.45,2.07.25,3.29-.1-.1-.2-.31-.39-.31-.3.51,1,.93.09,1.34.05.26.5.1.44,0a14,14,0,0,0,.76,3.87c.19.64.43,1.27.68,1.89l.35.93.17.45.08.19,0,.05a2.16,2.16,0,0,1-.72.72c-.21.11-.29.17.15.25-.12.18.3-.22.15-.08.16,0,0,.27-.09.56s-.15.56.08.4c.29-.61.29-.23.48-.58.14.63.32,1.29.81.76l0,.36a7.47,7.47,0,0,1,.68-.94.86.86,0,0,0,0-1,1.12,1.12,0,0,0,.12-.22l0-.12a.1.1,0,0,0,0,0l.05-.14a9.81,9.81,0,0,0,.4-1.61c.11-.62.21-1.34.31-2.09l.29-2.2,1.09-8.78c1.07-5.75,1.3-11.48,2.31-17.35a2.93,2.93,0,0,0,.69-3c.13.07.15.17.28.08-.65-.12,0-1.08-.6-1.27.26-2.18.2-4.21.29-6.47.06.36.58.56.56.14l-.4-.46.19-.06c-.08-.29-.39-.62-.62-.33l0-.38,8.61-.23c1,5.56.23,11.19.89,16.67a18.29,18.29,0,0,0,.54,4.67l-.17,1.5c0,.44-.07.89-.07,1.33a9,9,0,0,0,.32,2.48,3.58,3.58,0,0,0,1,1.71.82.82,0,0,0,1,.14,2.24,2.24,0,0,1-.19.89A1.22,1.22,0,0,1,357.41,298.34Z"/><path class="cls-2" d="M304.12,310.36c.32-.18.46-.7.92-.32C304.74,310.11,304.42,310.4,304.12,310.36Z"/><path class="cls-2" d="M307.93,297.22c-.09,0,.16-.16.22-.2,0,.16.25.35.07.45C308.21,297.31,308.05,297.32,307.93,297.22Z"/><path class="cls-2" d="M308.66,294c.28.11.37.84.33,1.25Z"/><path class="cls-2" d="M310.49,291.29c.3-.19.41-.09.33.25C310.66,291.52,310.61,291.39,310.49,291.29Z"/><path class="cls-2" d="M309.89,290.92c0-.25.25-.33.44-.4C310.09,290.46,310.35,291.12,309.89,290.92Z"/><path class="cls-2" d="M312.65,284.9c0-.15-.08-.56.28-.58C312.66,284.39,313,285.16,312.65,284.9Z"/><path class="cls-2" d="M313.36,281.91c.06-.08.12-.1.09-.24.19-.11.31.15.28.3Z"/><polygon class="cls-2" points="332.52 299.74 332.33 299.41 332.62 299.42 332.52 299.74"/><path class="cls-2" d="M347.46,314.4c0-.47.37-.17.44-.22C347.77,314.55,347.62,313.9,347.46,314.4Z"/><polygon class="cls-2" points="348.96 300.09 348.95 300.2 348.37 300.07 348.96 300.09"/><path class="cls-2" d="M351,255.3c0-.13,0-.51,0-.23S351,255.49,351,255.3Z"/><path class="cls-2" d="M351.55,259.09c.19.74.1.76,0,.71s-.16-.19-.16.3c0,.07-.12-.83-.12-.62,0,1.19-.34.51-.38-.42l0-.23c0-.17-.07.61-.1.5l0-.44a4.41,4.41,0,0,1-.1.57l.06-.76-.07.53c-.2,1.26-.08-.11-.24.54,0-.12,0-.22.06-.34-.24.75-.36.57-.57.81.06-.18.16-.51.22-.72a2.26,2.26,0,0,1-.32.76c.17-.55-.23.48-.17.16l0-.12c-.24.56.08-.35-.21.33l.15-.43c-.32.76.11-.41-.07,0l-.06.16c-.1.17,0-.21,0-.09l0-.09c-.14.18,0-.25-.25.33.2-.47.15-.19.43-.88-.42.52-.55.32-.7.23.12-.23.16-.3.29-.5a2.18,2.18,0,0,0-.31.33,3.59,3.59,0,0,0,.19-.31c.12-.21-.44.56-.3.3s.24-.29.37-.49a1.33,1.33,0,0,1-.42.41c.07-.08.12-.13.24-.29-.38.42,0-.13-.22.13l.24-.28c.25-.38-.5.59-.37.36.08-.08.17-.2.27-.31-.46.49-.38.27-.56.41l.1-.11c-.09,0,0-.16-.23,0,.1-.13.64-.64.51-.57-.53.52-.28.15-.87.75,0-.12.21-.37,0-.22.23-.17.67-.61.74-.63l.32-.31c.23-.2-.06.08.22-.17,0,0-.28.17-.19.09a7.91,7.91,0,0,1-1.16.79c.25-.16.64-.51.75-.58l-.59.4-.6.39s.47-.35.3-.26-.26.18-.4.26c.06-.05-.21,0,.39-.4.23-.17.15-.06.35-.22,0,0-.23.11-.26.09l.08-.05c.08-.08-.3.11-.63.34,0,0,.37-.24.2-.1-.37.21-.5.23-.53.19s.28-.15.46-.25a3,3,0,0,1-1,.32c-.31.17.57-.28.41-.18.39-.3-.7.14-.1-.25.06,0-.44.22-.35.18s.48-.27.29-.22c.27-.13-.1,0-.2,0s.13-.06.17-.05c-.25.07-.76,0-.39-.27a1.91,1.91,0,0,1-.7.08l.44-.11c.25-.1-.07-.09.31-.19-.56.09.53.1.09.13.36-.12-.74.08-.13-.06,0,0-.56,0-.14-.12a4.05,4.05,0,0,0,.59-.14,3,3,0,0,0-.37,0l-.19,0c-.43.1.05,0-.43.08.36-.09-.23,0,.49-.17l.57-.13s-.6.11-.86.16l.26-.07c-.87.2.06-.06-.61.08l.13-.06,0,0h0l0-.15h0s.1-.09.37-.14c-.27,0-.6,0-.41-.1a1.36,1.36,0,0,0,.3,0c.26-.06,0,0-.12-.06.13,0,.51-.12.82-.17a9.78,9.78,0,0,0-1,0c.87-.09-.58-.13.22-.21a2.29,2.29,0,0,0,.65,0c.88-.05-.65-.07-.22-.14h-.73c.45,0-.42-.12.32-.1-.26,0,.24-.08-.47-.1.6-.09-.34-.36.93-.29-.12,0,0-.05-.35-.09s.28.07,0,0a1.82,1.82,0,0,0-.31-.06,2.08,2.08,0,0,1,.8.07c.45,0-1.19-.25-.89-.32s.4.07.36,0l-.49-.15a5,5,0,0,1,1.15.18c-.08,0,0-.08-.41-.17l.62.1c-.45-.07-.29-.09-.4-.13l.12,0c.21,0,.09,0,0-.05a1.78,1.78,0,0,0-.52-.06c-.21-.07-.15-.08-.4-.17.47.13.35,0,.41,0s-.41-.15-.39-.16c.25.07.06,0,.39.08.07,0-.24,0,0,0s.61.15.31,0-.93-.26-.61-.24c.11.05.3.11.46.17l.26,0-.42-.13.2.06c-.44-.16-.11-.13-.61-.3,0,0,.31,0,.37,0l0,0c.26.05.11,0-.16-.17l.09,0s0-.07-.24-.19c.33.08,1.57.6,1.07.35a5.66,5.66,0,0,0-1-.47c.31,0-.31-.36.35-.14a2.47,2.47,0,0,1-.34-.2c.21,0-.33-.51.48-.18a4.49,4.49,0,0,0,.61.35c-.33-.22.37.18-.21-.17a3.83,3.83,0,0,0-.68-.35c-.15-.18-.08-.29.26-.12A1.44,1.44,0,0,1,346,254c.54.35.65.36.48.2l-.32-.22.35.2c-.1-.08-.67-.47-.33-.3l.35.22c-.24-.22-.64-.59-.34-.44l.49.3a1.77,1.77,0,0,0-.45-.35,2.68,2.68,0,0,1,.8.41c-.86-.85-.73-1.09-.54-1.16l.21.2c.23.15-.35-.37-.18-.26s.46.39.69.66-.31-.41-.37-.54c-.27-.28.15.2-.19-.15-.09-.1.28.14-.12-.28.17.15.46.47.62.64l-.17-.23c.5.46.78.94,1.4,1.5l0-.08c.44.42.44.53.62.64-.19-.22-.75-.85-.95-1s-.94-1-.84-1.05c.25.24,0,.11.34.45s-.12-.24,0-.15a3.71,3.71,0,0,1-.59-.69c.22.17.34.43.43.43a3.58,3.58,0,0,0-.53-.63c-.48-.59.2.11-.16-.36a14.53,14.53,0,0,0,1,1.15c-.35-.39-.38-.6-.9-1.16a4.34,4.34,0,0,1,.57.66c.23.22-.51-.8.14,0l-.32-.42.4.43s-.34-.64.14,0c0-.07,0-.09-.3-.52-.25-.24.19.36-.28-.22.4.46,0-.11-.07-.3l.19.25c-.05-.11,0-.08-.16-.36a2.06,2.06,0,0,0,.27.37l-.25-.4c-.06-.24.49.66.47.51l.16.33c0-.07.23.28.18.14l-.67-1.09c-.06-.18.28.39.08,0l.23.46c.07.12.42.57.46.53a3.59,3.59,0,0,0-.51-.86s.2.18.34.45c0-.16-.25-.39-.34-.64.17.23.45.54.69.88l.32.64h0c.26.51.24.37.53.9.06.07,0-.11-.08-.26-.54-.81-.59-1.19-1-2,0-.27,1.08,1.86.52.59-.12-.2-.38-.82-.33-.56.1.05-.36-.81-.12-.52s.45.77.62,1.28c-.13-.26-.14-.18-.11-.1a5.17,5.17,0,0,0,.45.77c0-.09,0-.13-.18-.54s0,.07-.23-.4c0-.2.33.5,0-.33,0,.08-.25-.38-.4-.69l0-.22.13.31c.2.18-.23-.57-.08-.53l.31.59c.21.53-.24-.17.16.67.07,0-.1-.43,0-.23s0,.11,0,.19.54,1.15.33.45a3.68,3.68,0,0,0-.25-.63c.05-.14,0-.48,0-.55.23.64.13,0,.3.7-.16-.36-.3-.27-.08.34s-.11-.08.19.68a6.56,6.56,0,0,1,.57,1.21s0-.18-.07-.26c-.17-.46-.19-.44-.38-.91.11.1.07-.18,0-.64a3.61,3.61,0,0,1,.25.74c0-.17.14-.13.25,0-.28-.75,0-.21-.18-.83a4.75,4.75,0,0,1-.38-1,3.5,3.5,0,0,1,.16.49c-.08-.43.25.65.11,0a9.66,9.66,0,0,0,.4,1.55c0-.35.12.43.16.42a2.76,2.76,0,0,1,0-.78c.2.56.22,0,.31-.07.08.31.14,1,.19,1.13s-.11-.75,0-.44v.14c0-.17.14.46.1-.55l0,.77c0,.07,0-.11,0-.19,0,.25,0,.47,0,.64,0,.52.05-.09.08-.11l0-.45c0-.36.08.09.12-.07v.44l0-.27c0,.43,0,.71,0,.35l0,1.09c0-.26,0-.54,0-1s-.06-.26-.05.17c0,0,0,0,0-.21,0,.62,0,.59,0,1,0,0,0,.16,0,0,0,.3,0,.35-.05.36,0-.24,0-.38,0-.56,0,.54,0,.71,0,.56,0-.62,0,.41,0,.24a11.16,11.16,0,0,1-.06-1.22c0-.27,0,0-.07-.25l.1,1.29-.05-.4c0,.21.1.8.08.69s-.07-.19-.11-.23l-.1-.39a4.48,4.48,0,0,1,.12.7c-.15-.37.08.38-.18-.27.05.32.15.59,0,.49l-.26-.53c.19.39-.16-.3-.13-.21.23.41.27.55.43.87-.24-.39,0,.06.18.42l-.21-.35c.39.66,0,.1-.07,0a4.89,4.89,0,0,0-.3-.41l.56.85-.28-.31c.56.74.15.3.52.72l-.34-.33c.72.71,0,.11.42.45l-.64-.5c-.21-.14.15.15.62.49-.21-.14.32.23-.23-.15l.4.28c-.26-.17-.2-.12-.08,0l0,0-.5-.3.08.06.43.25-.12-.06,0,0-.07,0h0l-.13,0-.22,0h-.18l0-.15h0v0l0,.1s.06.19.09.14v0h0l-.06,0c-.23.06-.3.09,0,0l0,0h0l-.08,0-.17.05c-.22.07-.42.14-.18.05l.4-.14,0,0c.09-.05-.23.06-.32.09s-.14,0,.07,0l-.28.12.59-.26,0,0a1.42,1.42,0,0,0,.33-.25.89.89,0,0,0,.09-.11v0h0l0,.09h0a1.36,1.36,0,0,0-.05.39.61.61,0,0,0,0,.11.52.52,0,0,0,0,.11.26.26,0,0,0,0,.06h0l0,.13.12.32A8.41,8.41,0,0,1,351.55,259.09Z"/><path class="cls-2" d="M351,255.37c0-.33,0-.51,0-.95Z"/><path class="cls-2" d="M349.66,252.16c0,.09-.05-.12-.07-.18s0-.3,0-.14A1.82,1.82,0,0,0,349.66,252.16Z"/><path class="cls-2" d="M349.29,252.07a1,1,0,0,1-.05-.57Z"/><path class="cls-2" d="M348.55,251.07c-.12-.22-.17-.34-.12-.35A3.75,3.75,0,0,1,348.55,251.07Z"/><path class="cls-2" d="M348.78,251.69s-.1-.14-.18-.28C348.69,251.64,348.6,251.24,348.78,251.69Z"/><path class="cls-2" d="M347.71,251.27s.08.26-.1,0C347.74,251.45,347.51,250.89,347.71,251.27Z"/><path class="cls-2" d="M347.63,251.83s-.05-.05,0,0a1,1,0,0,1-.19-.33Z"/><polygon class="cls-2" points="345.83 257.19 345.69 257.16 345.98 257.16 345.83 257.19"/><path class="cls-2" d="M346.5,259.53c.18-.07-.22.16-.26.19S346.56,259.54,346.5,259.53Z"/><polygon class="cls-2" points="348.3 259.49 348.29 259.5 348.71 259.08 348.3 259.49"/><path class="cls-2" d="M391.78,276.16c-.54,1.15.79-.32-.23.82A.61.61,0,0,1,391.78,276.16Z"/><path class="cls-2" d="M445.41,280.15a5.08,5.08,0,0,1-2.79,2.39l.08.06c0-3.41.72-7.16.15-10.48,0-.54.83.17.68-1a27.73,27.73,0,0,1-.24-8.08c.13-1.49.33-3,.57-4.48l.38-2.18.2-1.07.22-1.23.22.36a5.2,5.2,0,0,0-.15-2,5.54,5.54,0,0,1-.23-1.78c.15-.15.22.2.44-.27-.46.07-.25-2-.6-2a9.45,9.45,0,0,0,.42-1.78l-.5,0c-.6-.12-.82-1.28-1.77-2.06a2.94,2.94,0,0,0-.37-.25l-.2-.11,0,0,0,0-.06.08-.52.63a9.67,9.67,0,0,0-1.08,1.64c.07-.25.22-.56.11-.57l-1.78,3c-.59,1-1.18,1.93-1.76,2.82-1.14,1.76-2.47,3.67-3.58,5.47-.06-.25-.25-.58-.57-.5.34.5-.31,1.65-.88,2.65-.77.08-.71,1.9-1.75,2.8l0-.17c-.08,1.16-1.14,1-1,2.07l-.74.24c.41.83-1.18.92-1.32,1.82l.15.08c-.29.74-.85.83-1.16,1.49h-.12c-.8,1.49-1.74,2-1.19,2.35-.76.18.75-1.45-.39-1.14-.63,1.14-1.24,2.19-2,3.35a22.62,22.62,0,0,1-2.45,3.4,6.46,6.46,0,0,1-3.45,2,2.25,2.25,0,0,1-1.88-.54,2.68,2.68,0,0,1-.79-1.75,9.55,9.55,0,0,1,0-1.32,5.09,5.09,0,0,1,.66-1.67,10.24,10.24,0,0,0-.2-2.43c0,.19.37-.44.43-.72a1.18,1.18,0,0,0-.12-1.06,1,1,0,0,1-.09-1c.14.35.33.49.59.3a8.39,8.39,0,0,1-.29-2.91c.1,0,.15.25.37,0a1.89,1.89,0,0,1-.05-1.44c.11-.57.26-1.23.1-1.44l.39-.22c.71-2.58-.86.86-.41-1,.11.08.3-.32.47-.57-.34,0-.4-.53-.39-1.18a8.58,8.58,0,0,0,0-1.65,4.65,4.65,0,0,0,.2-.44c0-.52.12-1.29.2-2s.12-1.36,0-1.4c.29-1.27,1.29-3.82,1.26-4.83-1.11,3.57-.2-1-1.57,4.16l.52-3c.15-1,.23-1.65.06-1.2.21-.65.59-2.19.93-3.55s.62-2.49.62-2.11l.83-3.75c.49-1.79-.27,1.65.39-1.06a3.76,3.76,0,0,0-.11-.73,5.42,5.42,0,0,1-.5,1.26L416,245.16c-.62,2.23-1.15,4.12-1.47,5,.31-1.12.54-2.22.72-3.13s.31-1.67.5-2.29l-1.3,5-1.15,4.63c-.19.55.57-2.91.12-1.33-.18.95-.4,1.79-.61,2.72,0-.23-.74,2.26-.31-.67.11-1,.41-1.4.39-2-.37.92-.54,2-.89,2.84l0-.36a6.27,6.27,0,0,0-.46,1.56,9.57,9.57,0,0,0-.26,2.06c.12-.23.13-1.47.25-1.19a19.16,19.16,0,0,1-.92,3.66c.11-.58.15-1.18.24-1.95-.54,2.81-.85,4-1.15,5.37,0,.4,0,0,0-.53s.05-1.12.09-1c-.27,0-.53,1.09-.7,1.89s-.3,1.41-.7,1.46c0-.24.31.53.26.41-.22.41-.55-.1-.58.45-.23-.22-.13.56-.19.94.11.3-.16,0-.05-.33.19.19-.91,4-2.08,5.75.2,0,.17,1.47,0,1.9l-.35-.35c-.42.31-.57,1.49-1,1.45.13,1.13,1.09-3.86,1-2.41-.49.19-.07,2.07-.53,1.56-.26.67-.49,2.58-1.33,3.48.22-.33-.08-1.46-.45-.48-.66,1.74,0,.68-.57,2.18l-.16.51-.17.5c.2.6-.84,1.2-.28,1.28-.14-.13-.46.42-.8.83s-.69.67-.71.17l0-.85c-.39.53-.61,1.46-1,2-.07,0-.23-.06-.2-.18,0,1.07-1.39.65-2.35,1.36a7.07,7.07,0,0,1-2.48-.67,2,2,0,0,1-1.21-1.57,4,4,0,0,1-.8-.88,2.7,2.7,0,0,1-.28-.61,5.25,5.25,0,0,1-.11-1c.11.17.19.49.36.36.12-1-.1-1-.35-1.57.06.14.53-2.33.89-3.41-.18-1.1-.7-.53-1-.54a4.59,4.59,0,0,0,.38-2.75c0-.61-.06-.85,0-1.23a1.48,1.48,0,0,1,.36-.91c.07.35.26,1.46.57.68,1-.77-.43-1.85.21-3.22l-.77.24c.53-.57-.09-2.16.62-1.9-.19-.52.53-1.62-.2-1.59,1-2.21.81-5.73,2.41-6.82,0-.35.3-1.14-.1-1.06-.53.44.08.83-.24,1a.4.4,0,0,0-.2-.47c.34-.67.54-1.21.93-.39.85-1.45-.74-1.94.13-3.86.25.18.41.06.54-.54l-.13-1.25c.53-1.25.87-.52,1.35-.39.14-.7.46-1.52.21-1.95l.2-.14,12.7-8.89-9.4,9.69-.58.6c.54-.56.21.62.28,1l-.07-.35c-.23.1-.22.93-.22,1.36.32,0,.57-.86.72-1.31.16.4,0,1,.21,1.48-.45-.24-.55,1.1-.7,1.65s.3.81.25,1c-.25,0-.26,1-.5.47,0-.23.35-.45.19-.86-.26.39-.69.26-.55,1.19.1.71,1,0,.42,1.22-.05-.36-.23-.46-.35-.75l-.49,1.12.42.14c-.15.13-.16,0-.23.08.38.45-.28,1.81.17,2.2-.09.61-.62,1.16-.81,1.71v-.12a3.21,3.21,0,0,0-.39,2.22l-.08-.06a4,4,0,0,0-.22,1.8c-.62.83-1.7-.19-1.5,1-.28.94.3,1.73.69,1.44a13,13,0,0,0-.9,2.63,5.87,5.87,0,0,1-1.21,2.41c.07.3.24.2.13.72-1.12,2.36-1.73,5.31-3.43,6.81.16-.76-.37-.24-.61-.34.07.73-.71.48-.2,1,.39.13.53.27,1-.31a11.35,11.35,0,0,1-2.39,4.18c.37-.29.32.06.26.42-.5-.41-1.16.53-1.41,1.4l.28.31-.63.28c-.06.35.51.74-.27,1.28a.69.69,0,0,0-.49,0,11.52,11.52,0,0,1-.41,1.61,3.13,3.13,0,0,1-1,1.47l-.5.18-.5.17c-.24.39-.54,1.23.15.7-1.51,1.22-2.63,2-3.46,1.94a6,6,0,0,1-2.64,1.92,6.81,6.81,0,0,1-4.2.15,7.65,7.65,0,0,1-3.69-2.38,10.2,10.2,0,0,1-1.81-3.16h.32c-.13-1.13-.7-.38-.74-1.18.37.25.35-.95.92-.25-.1-1.48-.94-1.71-1.22-2.65-.41-.09.36.72-.15.61-.19-.14,0-2.07-.53-2.19.21-.35.65-.12.9,0l-.33-.79c.61-1,1.35,2.16,2.12,1.06l-.14-.72c.56-.72.8,1.83.9,0-.33-.74-1.21-1.38-1.43-.67-.25-1.64-1.44-.71-1.41-2.53.34-.5.09,1.45.57,1.09.47-.85-.3-1.7-.09-2.46-.25.83-.81.12-.9-.44.31-.92.53.62.64-.69-.33-.23-.53-1.46-.8-.42-.75-.53.32-1.36-.22-2.13.57-.37,1.12,1.46,1.51.05-.56.18-.51-1.84-1.35-1.17.22-.55.63-.56.89-.11.42-.75-.68-2.09.39-2.19l-.47-.36c.21-.22.4-.56.76-.91.11-.69-.21-2.39.54-2.15,0-.24.4-1.8-.29-1.33-.59.91.13,1.23-.73,1.61.75-.57.24-1.45.21-2.08h.32c0-.37.25-1.13,0-1.44.1.31.34.23.48,0l-.34-.49c.22-1.44.89-.08,1.18-1.44l0,1.11c0-.24.55-.55.62-1.22-.32-.38-.63-1-.87-1.33.1-.81.57-.16.43-1l.13,1.13c.09.19.89-.39,1.26-1.35.12-.66,0-1.86-.67-1,.2-.49.73-1.06.85-.55.33-1.15-.49,0-.31-1.09.45-.26,1.36-1.28,2.09-1.77,0,0,0,.31.08.63l.09.63.31-.62c.12,1.06.59-.2.91.52a3.06,3.06,0,0,0,.46-1.43c-1.5.76-.44-2-1.37-2.09.82-1.8,2.41.06,2.35-2.35-.37.15-.41-1-.87.15.75-.95-.3-1.19.83-2.17-.32,1.06,1.39-.4.94,1.13-.18-.25-.65.57-.7.81.55-.22.69.57,1.35-.43.36-.64.94-1.46.49-1.62s-.63.95-.76.26c.73-1.31,1.5-1,1.24-2.12-.6.84-1.15.72-1.41.49,0,0,.59-1.09.59-1.09l.11.4c1.47-1.33-.11-.86,1.32-2.22l.56-.08.56-.07c0,.7-2.15,1.8-1.21,2.19.83-.85.79-1.48,1.83-2.08-.15.23-.39.48-.51.72.17-.14.54-.06,1-.13a2,2,0,0,0,1.38-1.11c.59-.75,0-.41-.17-.71.82-.63,1.39-1.05,1.91-1.42a6.12,6.12,0,0,1,.79-.5,4.44,4.44,0,0,1,1-.42c0,.38.58.17,1.12.13s.86-.1.06.38a4.12,4.12,0,0,0-2.4.46,3.38,3.38,0,0,0-1.75,1.54c1,.26-1.36.79-1.15,1.71,1.2-.93,1.63-.18,2.09.11a2.88,2.88,0,0,0,.72-.75c-.09-.52-.54-.24-.83-.66l2.26-1.13c.73-.35,1.42-.66,2-.94.72.22.47.69-.25.81a6.31,6.31,0,0,1,3.47.35,6.42,6.42,0,0,1,2.71,2c-.2-.77.28-.39.73.12s.81,1.12.84.53c-.46-1.09-1-2.32-.16-2,.55.69-.28.21-.16.59a1.42,1.42,0,0,1,.7,1.11,1.26,1.26,0,0,0,.69,1c-.63-.91-.93-.85-1.1-.6s-.32.69-.67.69c1,1-.38.16.18,1.32a9.88,9.88,0,0,1,1.79,3.94,11.19,11.19,0,0,0,0,3,22.25,22.25,0,0,1,.16,2.87c-.38.77-1,.18-1.23,1-.1,1,.84-.66.36.78l-.12-.16c.15.48-.87,2.58,0,3.21l-.67-.6c-.12.25,0,.54,0,.78-.25,0-.54.22-.6-.25-.71.75-.35,1.84-.61,2.79l.61-.48c-.13,1.73-.93,2.67-1.41,4.22l-.39-.22-.15,1c-.3-.39-.9.29-.81.9,0,0,0-.68,0-1.35s0-1.33,0-1.33c.5-.53.22.89.78.67s.93-1.64.6-2a1.69,1.69,0,0,0-.16,1c-.64,0-.33-.84-.57-1.37-.08.28-.39.6-.23.73a4.9,4.9,0,0,1,.32-2.09c0,.68.47-.22.57.06-.5-.23-.4-1.13,0-2.22.82-.68.05-2.22.39-3.5a4.06,4.06,0,0,1,.88,2.24c.44-.81.14-1,.56-1.78a3.45,3.45,0,0,1-1.1-2l.41,0c-.13-1-.74-1-.6-2.29a16.09,16.09,0,0,0-.44-5.84l.37-.18a3.91,3.91,0,0,1-1.23-1.5,5.43,5.43,0,0,0-3.5-2.2,6.75,6.75,0,0,1-2,0,12.47,12.47,0,0,0-3.89,3,25.28,25.28,0,0,0-1.62,1.95l-1.66,2.25-.12-.88c0,.82-.53.19-.85.81.83-.39,0,1.13,0,1.73a9.22,9.22,0,0,0-2.18,5l-.39-.12c0,1.7-1.26,3.11-2,4.89a1.55,1.55,0,0,0-.83.93,11.51,11.51,0,0,1,.13,3.27c-.12.54-.32,1.23-.55,1.93a18.69,18.69,0,0,1-.66,1.94c.15,2.14,0,4.21,0,6.32,0,1.05,0,2.11.1,3.17,0,.52.1,1.07.17,1.57a9.32,9.32,0,0,0,.34,1.41l-.42.36a23.43,23.43,0,0,0,1.27,2.36,3.45,3.45,0,0,0,1.22,1.25,1.77,1.77,0,0,0,1.36.14,3.39,3.39,0,0,0,1.54-1.1l.16.4.15.41c.91-.37,1.44-1.71.83-1.89a4.09,4.09,0,0,0,1-1.34c.3-.49.6-1,1.08-1.12.74-.92.44-1.41.84-2.3a17.21,17.21,0,0,0,2.69-4.67l-.29.46c0,.3.35.48.64,0,.18-.83,1.56-2.61.32-2.3,1.55-1.87,1.87-5.14,3.4-7-.32.08-.16-.47-.24-.76.74-1.9,1.94-3.79,2-5.49.23-.27.27.63.55-.16.05-.5-.32-.11-.29-.74.49-3.3,2.27-6.36,2.72-9.38.08-.86.16-1.72.27-2.57s.18-1.72.28-2.58l6.45,1.56a108.54,108.54,0,0,0-3,10.54l-.18-.1c.34,1.83-1.6,3.82-.74,5.39-.26.37-.34,1.52-.66,1.16a6.91,6.91,0,0,1-.37,2.67,14.21,14.21,0,0,0-.3,1.57,5.63,5.63,0,0,0,0,.8v.2c0,.06,0,.05,0,.08a.46.46,0,0,0,.1.1s0-.07-.09-.14a1.13,1.13,0,0,0-.21.9,1.84,1.84,0,0,1-.17,1.07c-.09,0-.15,0-.36.16s-.08.36,0,.35.25-.09.22.05a4.17,4.17,0,0,1-.4.8c0,.2.54-.71.49-.75a1.14,1.14,0,0,0,.13.75.7.7,0,0,0,.56.31,1.32,1.32,0,0,0,1.15-.75,4.47,4.47,0,0,0,.45-1.36l.2-1c1.88-3.07,1.54.41,2-2.46.26-.14-.27-.29-.07-.25.18-1.11,1.62-1.17,1.46-2.06-.65.07-.11-.59-.42-.75.6-1,1-1.41,1.41-2a9.44,9.44,0,0,0,1.1-2.86l.15.43a30,30,0,0,1,1.46-5.21,40.73,40.73,0,0,0,1.64-5.9l7.57-19L424,214.68c-.57,6.69-1.2,13.85-1.92,21.4-.87,7.93-1.61,15.39-2.36,23l-1,9.83a.52.52,0,0,1,0,.16c0,.16.1.29.32.23a.58.58,0,0,0,.39.24.43.43,0,0,0,.16,0l.07,0s0,0,.1-.09A15.83,15.83,0,0,0,421.3,267c0,.17,0,.33.17.25-.45-.5,1.1-1.65.75-2.23,2.45-3.21,4.47-6.34,6.89-9.72-.33.58-.08,1.16.34.5l.14-.91h.23c.23-.49.31-1.15-.18-.83q1.05-1.65,2.17-3.25l1.76-2.48,2.29-3.17,2.28-3.12c.21-.35.32-.27.47-.35l.43-.15.85-.29,1.68-.59.83-.3c.15,0,.26-.15.43-.11l.6.29a6.44,6.44,0,0,1,3.2,3.07,9.38,9.38,0,0,1,.79,2.21,14.58,14.58,0,0,1,.34,3c0,1.15-.1,2.39-.15,3.58l-.18,3.36q-.11,1.92-.16,3.83a59.85,59.85,0,0,0-.23,8.52c-.77,5-1.46,9.75-1.77,14.63l-3.43-2.61a5.68,5.68,0,0,0,3.87-3.91,1.64,1.64,0,0,1,.19.23,2.28,2.28,0,0,1,.35.74A3.29,3.29,0,0,1,445.41,280.15Z"/><path class="cls-2" d="M392.47,274.82c.43-.07,1-.8,1,0C393.21,274.8,392.68,275,392.47,274.82Z"/><path class="cls-2" d="M398.38,251c-.1,0-.06-.44-.06-.56.18.32.6.54.54.88C398.7,251,398.57,251.09,398.38,251Z"/><path class="cls-2" d="M392.11,245.76c.09-.15.62-.17,1.3-.09a6.38,6.38,0,0,1,2,.68,8.87,8.87,0,0,0-1.63-.46,7.25,7.25,0,0,0-1.13-.12A3,3,0,0,0,392.11,245.76Z"/><path class="cls-2" d="M384.3,246.73c-.67.16-.61-.05.13-.54C384.57,246.29,384.37,246.52,384.3,246.73Z"/><path class="cls-2" d="M384.26,247.57a2.06,2.06,0,0,1-1.11.44C383.31,248.19,384.12,247.05,384.26,247.57Z"/><path class="cls-2" d="M375,257.94c-.13.3-.25,1-.68,1.15C374.64,258.9,374.71,257.52,375,257.94Z"/><path class="cls-2" d="M372.68,263.78c-.09.18-.18.23-.19.48-.25.3-.32-.15-.23-.45Z"/><polygon class="cls-2" points="392.62 271.13 392.57 270.47 392.84 270.6 392.62 271.13"/><path class="cls-2" d="M410.38,263.72c.16-.86,0,.65,0,.74C410.32,264.79,410.53,263.25,410.38,263.72Z"/><polygon class="cls-2" points="415.45 252.54 415.46 252.42 416.34 249.65 415.45 252.54"/><path class="cls-2" d="M506.1,222.31c-.69,1.33.87-.4-.33.94A.78.78,0,0,1,506.1,222.31Z"/><path class="cls-2" d="M519.79,256.77a38.24,38.24,0,0,1-8,.92,27.2,27.2,0,0,0-8.25,1.39c-.59.19,0-.85-1.33-.37a72.13,72.13,0,0,1-8.81,3c-3.29,1-6.74,1.93-9.77,2.91l.24-.37c-1.17.36-2.1,1.75-3.27,2.24-.09-.13.25-.4-.11-.44-.05.57-1.89,1.33-2.17,1.9-.53.1-.68-.25-1.35-.06l-.32.86a7.69,7.69,0,0,1-2.47,2.64,6.48,6.48,0,0,0-2.44,3.29c0-.17,0-.46-.22-.32a8.82,8.82,0,0,0-.47,3.53,6.78,6.78,0,0,0,1.26,3.4,8.8,8.8,0,0,0,6.22,3.44c-.21.16-.46.47-.2.73.34-.48,1.8-.49,3-.77.32.26.86.05,1.46-.25a6.44,6.44,0,0,1,2-.79l-.08.16c.82-.93,1.67-.26,2.21-1.3l.83.11c.08-.94,1.64-.35,2.28-1.17l-.11-.13c.67-.6,1.27-.48,1.91-1l.11,0c1.56-1.13,2.74-1.31,2.37-1.84.42,0,.05.34-.25.63s-.58.57.07.63c5.1-3.8,10.41-7.5,15.23-11.65.71-.28,1.11-.52,1.39-.45.4-.51,1.73-1.66,1.91-2.32-.15.16.52,0,.79-.25,1-.62.43-1.38,1.55-2-.25.47-.23.73.06.79a15.47,15.47,0,0,1,2.28-3.12c-.06.22-.23.48-.05.59.58-1.38,1.86-1.76,2.42-2.92l0,.59c1.67-1.17-.18-1,1.16-2-.19.38,0,.37.08.52.57-1.63,2.36-3.47,3.2-4.84a.14.14,0,0,0,.08.15,34.74,34.74,0,0,0,3.15-4.43c.54-.47.6.71,1.56-.86-.32-.19.07-.86.37-1.44s.49-1.09-.15-.87c.94-1.24,2.57-3.13,2.86-4.17-.12.75,1.17-.18.55,1l.89-.61c.18.28-.61.82-.13.75a23.19,23.19,0,0,1,1.46-2.82c.22-1.28,0-2.68.85-4.42-.19.94,1-.08.79.53,0,0,0-.76,0-1.54l0-1.54c.26-.59.59.13.83-.79-.2,0-.13-.46-.14-.78.21-.18,1-2.47,1.72-2.45.38-.15-.27,1,.25.47.45-1.11.24-1.24.62-2.36h.1c.38-.71.33-2.27-.27-1.57-.16.5.48-.07.06.62a8.79,8.79,0,0,1,.07-3c.08.38.27.36.45.54a19.07,19.07,0,0,0-1.2-4.34c-.32.06.75.36.63.64a4.32,4.32,0,0,0-1.12-2.7c-.32-.36-.64-.7-.92-1a4.53,4.53,0,0,1-.74-1.09c.25.13-.22.46-.17.37-.68-.63-.33-1-1-1.23.11-.28-.71-.4-1.35-.61-.4,0-.09-.21.44,0-.47-.12-1.56-.53-2.86-.87s-2.75-.71-3.83-1.11c0,.19-1.47.49-2,.43l.25-.43c-.44-.35-1.74-.11-1.8-.51-.57.24.51.18,1.54.15s2,0,1.25.08c-.35-.44-2.17.48-1.78-.1-1.06-.07-2.08.4-3.08,0,.29.07.87-.64,0-.6-1.53.11-.42.2-1.67.41l-.78.22c0,.44-1.38,0-.78.48-.21-.35-2.21.38-2.12-.36l.17-.6c-.67.1-1,.71-1.54,1-.09,0-.28-.15-.26-.24,0,.88-1.6.11-2.3.89-1.43-.13-3.5.51-4.25.08A8.48,8.48,0,0,1,505.7,213c.22-.13.54-.23.57-.44-.81-.09-.95.18-1.6.48.12-.17-1.62-.14-2.54-.22-1,.55-.48.91-.51,1.22-1.19-.59-2.73,1.38-4.12,1,.31-.23,1.35-.9.44-.83-1.22-.53-1.68,1.24-3.3,1.38l.62.55c-.82-.2-2,1.22-2.13.47-.4.42-1.81.49-1.38,1.07a15.39,15.39,0,0,0-4,1.56,6.78,6.78,0,0,1-3.17,1.09c-.2.29-.86.74-.49.89.63,0,.36-.69.69-.61a.37.37,0,0,0-.09.48c-.6.29-1,.66-1-.22a1.3,1.3,0,0,0-.71,1.45,2.66,2.66,0,0,1-.3,1.78c-.25-.17-.41-.09-.52.46a5.62,5.62,0,0,0,.12.57c.07.28.15.56.15.56-.27,1.21-.75.65-1.25.62,0,.74,0,1.66.37,2l-.3.47-.29.48c.42-.7.33.62.49,1l-.15-.36c-.2.16,0,1.05.1,1.51.3-.14.34-1.08.4-1.58.25.38.24,1,.55,1.51-.51-.14-.23,1.33-.22,2s.51.79.52,1c-.25,0,.07,1.2-.34.66-.1-.24.19-.59-.07-1-.14.5-.59.49-.17,1.46.31.73.94-.28.77,1.18-.16-.37-.36-.42-.56-.69l-.13,1.37.45,0c-.1.19-.15.07-.2.16.5.36.34,2,.89,2.29a14.8,14.8,0,0,1-.16,2.11l-.05-.12a3.82,3.82,0,0,0,.44,2.48l-.1,0a4.94,4.94,0,0,0,.48,2c-.23,1.12-1.64.52-1,1.68.12,1.11,1,1.66,1.22,1.19-.11,2,.82,4.21.31,6.11.21.27.3.08.46.66.1,2.94,1.1,6.11.45,8.52-.27-.83-.45,0-.7,0,.46.66-.33.88.37,1.07.39-.11.6-.06.68-.89a15.64,15.64,0,0,1,.34,5.37c.14-.5.3-.14.45.23-.65-.07-.63,1.23-.31,2.18l.4.1-.34.67c.16.36.85.34.57,1.34a.68.68,0,0,0-.39.32c.41,1,1.08,2.34.86,3.46l-.48.95c.11.46.52,1.21.61.38-.09.92-.1,1.77-.17,2.28a2.17,2.17,0,0,1-.43.74,7.66,7.66,0,0,1,1.17,1,2.45,2.45,0,0,1,.22,1.26l-.21.87c-.16,1.19.38-1.48.25-.66-.1.43-.2,1-.31,1.56a13.25,13.25,0,0,1-.35,1.6c-.08.85,0,.66.17.14s.3-1.31.35-1.43c.25-1.47-.18.74.14-1.1,0-.25,0,.16,0,.37s0,.2.21-1.05c-.13,1.07-.39,2.91-.54,3.84l.1-.49.14-.75c-.06.65-.14,1.33-.25,2.08l-.19,1.17-.11.62-.09.45a32.88,32.88,0,0,0-.69,4.24l.11.24a14.1,14.1,0,0,1-.21,1.63,1.51,1.51,0,0,1-.18.53c-.11.18-.17.24-.14,1.69l0,0v0l0-.1.1-.46.2-1c.13-.69.25-1.41.35-2.07a20.06,20.06,0,0,0,.3-2.76,29,29,0,0,0,.64-3.81,21.24,21.24,0,0,1,.44-2.83c0,1.06-.25.86-.38,2.6,0,.7.12.19.23-.39s.21-1.25.27-1.15a21.8,21.8,0,0,1,.19-3.16,8.34,8.34,0,0,1,0,1.18c0,.39,0,.69.05.52a15.87,15.87,0,0,0,.08-2.6c0-1.18,0-1,.06-.9s.07.31,0-.48c.05.63.09,1.45.09,2.24s0,1.49.16,1.49c-.06-.6,0-1.22,0-1.82a11.83,11.83,0,0,0-.17-2,11.89,11.89,0,0,1,.25,1.89c.1.2.09-.48.07-.86s0-.55.23.26l-.11-.48-.11-.46a2.28,2.28,0,0,0,.42.57,3.36,3.36,0,0,0,0-.78c0-.22,0-.31.35,0,0-.17.2-.72-.35-.8-.18,0-.12.13-.1.24s0,.16-.29-.15c.24.23.27.09.19-.06a1.47,1.47,0,0,0-.33-.41l.28.13a.24.24,0,0,1,0-.08v0l0-.2a1,1,0,0,0,0-.73c.07.33.32.26.49,0l-.31-.52c.28-1.51.9-.07,1.25-1.51l0,1.18c0-.26.58-.59.67-1.31-.32-.4-.64-1.05-.88-1.38.09-.85.58-.2.42-1.11l.15,1.18c.08.2.9-.46,1.24-1.52.09-.72-.15-2-.73-1,.18-.53.65-1.2.82-.68.24-1.25-.49,0-.41-1.1.41-.34,1.22-1.53,1.87-2.21l.33,1.3.24-.72c.25,1.11.57-.34,1,.37a3.74,3.74,0,0,0,.25-1.65c-1.38,1.16-.76-2-1.74-1.86.37-2,2.43-.61,1.74-3.08-.32.27-.67-.9-.81.43.47-1.2-.59-1.09.19-2.44,0,1.18,1.2-.91,1.25.8-.25-.19-.47.81-.46,1.07.48-.41.83.36,1.2-.91.14-.8.44-1.87,0-1.84s-.29,1.2-.64.56c.28-1.59,1.09-1.63.42-2.52-.22,1-.79,1.09-1.12,1l.13-1.19.26.31c.76-1.74-.42-.7.15-2.43l.87-.65c.44.57-1,2.49,0,2.43.36-1.13,0-1.64.54-2.66,0,.26-.06.6,0,.86.14-.4,1.45-.48,1.2-2.31,0-.92-.26-.31-.59-.42.41-1.87.19-2.52.46-3.72.59.42.61-2.09.94-.6-.55.51-1.2,3.19-.76,4,1-.46-.51,1.42.17,2,.43-1.48,1.17-1.2,1.74-1.3a2.64,2.64,0,0,0,0-1.13c-.43-.3-.56.24-1.06.14a8.87,8.87,0,0,0,.5-4.33c.38-.49.81-.2.68.47a47.77,47.77,0,0,1,1.57-6c-1.07,1,.33-2.15-.52-1.47-.4,1-1.18,1.7-1.39,1.06.21-.62.33.1.57-.12-.23-.9,1-1.09.49-2-.17,1.87.86.58,1.4,1.06,0-1.39.42.16.72-1.14a33.2,33.2,0,0,1,.26-4.54c1-1.7,1-4.63,1.33-6.27.49-.79,1.06-.07,1.37-1,.21-1.09-.92.66-.26-.89l.11.18c-.05-.52,1.05-2.88.15-3.55l.66.65a1.62,1.62,0,0,0,0-.87c.25,0,.54-.28.6.25.71-.91.33-2.12.5-3.22l-.57.62c0-1.93.65-3.1.81-4.94l.43.13,0-.39.78.3-.24.69c-.22-.46-1,.24-1,.92l.44-2.12.46-2.22.5,2.59.16.86c-.4.73-.38-.94-.89-.53a2.51,2.51,0,0,0-.26,2.39,2.13,2.13,0,0,0,0-1.21c.65-.11.45.86.77,1.42,0-.34.31-.79.13-.89a5.92,5.92,0,0,1-.07,2.49c-.1-.79-.45.34-.57,0,.52.19.49,1.27.08,2.6-.81.85-.08,2.63-.57,4.17a6,6,0,0,1-.72-2.64c-.46.93-.19,1.1-.66,2a3.66,3.66,0,0,1,.83,2.36h-.41c0,1.21.55,1.33.14,2.79-.76,2.49-1.31,5.11-1.82,7l-.41,0c.59,1.27-.51,3.65-.51,5.18-1,2.36-1,5.42-2,6.5a93.73,93.73,0,0,1-3,12.62l-.35-.91c.18.92-.47.42-.62,1.22.72-.76.26,1.25.44,1.9a17.17,17.17,0,0,0-1.51,6.37l-.41-.06c.17,2-1.17,3.88-2,6a2.07,2.07,0,0,0-.91,1.13c.17,1.49.08,1.61-.55,4.66a48,48,0,0,1-2.73,6.19,106.76,106.76,0,0,1-3.92,11.73l-2.2,5.75-.57,1.54-.07.2,0,0v-.12l0-.32-.09-.63c-.13-.83-.26-1.63-.41-2.38l.24-2.25a25,25,0,0,1-.94-4.52c-.14-1-.26-2-.38-3s-.21-2.25-.31-3.37c-.39-4.6-.68-8.8-1.28-12.33a9.29,9.29,0,0,0,.87.51c0-.26,0-.52,0-.78s0-.38-.05-.57a4.41,4.41,0,0,0-.24-.94c-.21-.54-.5-.86-.77-.66.12-1.37-.71-3.32-.12-4.24,0-1.39-.53-1.65-.75-2.78a29.85,29.85,0,0,0-.51-6.38v.65c.21.27.55.26.54-.39-.32-.95-.12-3.58-1-2.53.3-2.82-1.06-6.42-.56-9.19-.24.25-.36-.42-.56-.69-.24-2.43.06-5-.57-6.94.1-.4.51.57.44-.42-.16-.58-.35,0-.56-.69-.86-3.89-.24-8-.7-11.6-.27-1.59-.52-3.14-.69-4.89a21.85,21.85,0,0,1,.13-5.64,12.66,12.66,0,0,1,2.62-5.9,16.45,16.45,0,0,1,4.59-3.73l0,.21a7.18,7.18,0,0,1,3.28-1.66,5.05,5.05,0,0,0,2.8-1.56c.53,0,1.83-.63,1.61-.14,1.4-1.13,4.6-1.18,6.74-2.5a1.35,1.35,0,0,0-.56.28c2.48-.31,4.43-1.44,7.07-1.63-.24.14-.69.3-.72.51,1,.14,2.15-1.32,2.88-.49.56-.12.31-.54,0-.45,2.83-.37,5.73-.85,8.68-1.26,1.47-.21,3-.4,4.46-.54a35.63,35.63,0,0,1,4.66-.21c2.23.42,2.23.91,2.16,1.11s-.26.25,1.52.18c.25.23.27-.32.28-.12a2.34,2.34,0,0,1,1.59.69c.42.32.77.63,1.29.53-.22-.66.7-.14.83-.46a17,17,0,0,1,2.63,1.59c.33.2.64.41,1,.61s.8.34,1.33.59l-.31.16a8.45,8.45,0,0,1,3.68,2.31c.54.53,1,1.12,1.49,1.67s.94,1.11,1.38,1.64a14.13,14.13,0,0,1,1.07,6.14,21.42,21.42,0,0,1-1,5.58,43.76,43.76,0,0,1-1.85,4.8c-.69,1.47-1.35,2.94-2.05,4.4a105.57,105.57,0,0,1-10.07,16.52c-7.9,10.05-16.81,19.18-27.87,26.09a24.42,24.42,0,0,0-3,1.22,22.72,22.72,0,0,0-2.78,2c0-.18.21-.32,0-.3.19.65-2,1.22-2,1.92a67,67,0,0,1-6.54,3.3,19.35,19.35,0,0,1-8.37,1.66c1,0,1.48-.59.34-.55,0,0-.31.1-.64.17l-.67.15-.18-.21c-.84,0-1.83,0-1,.46a13.51,13.51,0,0,1-5.88-2.59,11.25,11.25,0,0,1-4-5.83,10.28,10.28,0,0,1-.35-3.73,10.78,10.78,0,0,1,.88-3.48,14.66,14.66,0,0,1,3.62-4.93,25.25,25.25,0,0,1,4.24-3.11l1.08-.62,1-.54c.69-.35,1.36-.74,2.06-1.07,2.77-1.39,5.6-2.61,8.43-3.81,2.81-.83,6.67-2.36,9.73-3.27A112.26,112.26,0,0,1,511.35,255c4.45-.16,8.88-.16,13.63,0a4.11,4.11,0,0,1-1.17.82A11,11,0,0,1,519.79,256.77Z"/><path class="cls-2" d="M507,220.76c.45-.09,1.16-.88,1.08.06C507.78,220.74,507.2,221,507,220.76Z"/><path class="cls-2" d="M502.68,242.23c.09.06-.22.35-.29.43.05-.34-.14-.71.09-.94C502.42,242.07,502.58,242,502.68,242.23Z"/><path class="cls-2" d="M500.81,249.08c-.26-.18-.12-1.7.06-2.58Z"/><path class="cls-2" d="M498,255.15c-.39.48-.48.3-.27-.44C497.86,254.7,497.87,255,498,255.15Z"/><path class="cls-2" d="M498.48,255.78a1.75,1.75,0,0,1-.61,1C498.12,256.79,498.06,255.47,498.48,255.78Z"/><path class="cls-2" d="M493.66,269.28c-.08.34-.08,1.12-.48,1.32C493.5,270.33,493.33,268.9,493.66,269.28Z"/><path class="cls-2" d="M492,275.74a1,1,0,0,0-.17.53c-.25.33-.32-.13-.24-.45Z"/><polygon class="cls-2" points="496.26 215.61 495.65 215.98 495.65 215.68 496.26 215.61"/><path class="cls-2" d="M539.07,221.86c.14.62-.31.4-.36.49C538.73,221.81,539.05,222.59,539.07,221.86Z"/><polygon class="cls-2" points="528.04 247.25 528.16 247.07 528.61 247.47 528.04 247.25"/><path class="cls-2" d="M576.75,213.13c-.16-.92-.5.52-.25-.59C576.74,212.65,576.93,212.82,576.75,213.13Z"/><path class="cls-2" d="M565.95,244.12a21,21,0,0,0,.91,2.47,6.6,6.6,0,0,0,1.45,2.15,3.52,3.52,0,0,0,2.45,1,4.17,4.17,0,0,0,2.42-.79c.33-.19.18.83.94.33,2.51-2.25,7.16-3.74,11-5l-.08.33c.72-.26,1.08-1.38,1.78-1.73.09.13-.09.33.18.4-.1-.5,1.06-1,1.13-1.45.36,0,.55.3,1,.23l.05-.7c.26-1.74,2.48-1.72,3.38-3.31,0,.15-.05.33.13.34,1.61-2.31,4.18-4.47,6-6.87.06.22.23.54.51.55-.3-.49.22-1.28.67-1.95.69.12.51-1.38,1.36-1.89l0,.14c0-.91.93-.57.72-1.47l.63-.06c-.46-.74,1-.53,1-1.25l-.15-.09c.16-.55.65-.54.83-1l.11,0c.48-1.09,1.22-1.42.67-1.74.66-.07-.41,1.08.56.94,1.55-3.62,3.32-7.19,3.84-11,.31-.39.43-.65.68-.76-.07-.39-.05-1.5-.46-1.68,0,.12.3-.38.27-.61,0-.41-.22-.51-.46-.55s-.47-.09-.59-.47c.32.07.59,0,.69-.25a6.42,6.42,0,0,0-2.3-.59c.15-.1.37-.13.43-.35a2.28,2.28,0,0,1-1.24.13,1.34,1.34,0,0,0-1.06.21l.13-.22.14-.22c-1.28-.15-.28.85-1.24.9.19-.19.07-.3.07-.46-.7.93-2.12,1.45-2.78,2.2a.19.19,0,0,0-.05-.15,9.46,9.46,0,0,0-2.43,2.21c-.42.17-.53-.76-1.24.14.55.49-1.1,1.6,0,1.69a7.63,7.63,0,0,0-2.15,2.25c.06-.52-1-.23-.53-.89l-.73.18c-.17-.27.48-.42.07-.52a9,9,0,0,1-1.1,1.63,6.26,6.26,0,0,1-.57,2.93c.11-.63-.84-.24-.71-.63l.12,2.21c-.21.34-.52-.28-.71.29.18.09.12.37.14.6-.16.07-.84,1.43-1.54,1.14-.34,0,.26-.61-.21-.41-.42.61-.23.79-.63,1.4l-.09,0c-.36.35-.55,1.37.08,1.16.21-.27-.43-.14,0-.44a2.71,2.71,0,0,1-.62,1.91c0-.27-.14-.35-.25-.55a13.3,13.3,0,0,1-.85,3.17c.29.2-.33-.68-.09-.73-1.14,1-.91,2.84-2.13,3.48,0-.2.48.16.39.12-.39.56-.79.3-.84.77-.28-.11-.18.54-.32,1,.08.31-.18,0,0-.33a10.7,10.7,0,0,1-1.91,4.23c.19.06.26,1.13.1,1.42l-.36-.32c-.38.16-.45,1-.83.92.19.89.76-2.7.73-1.64-.45.06.08,1.54-.4,1.08-.28.62-.09,1.42-.76,1.83.15-.14-.34-.76-.55-.25-.34.91.07.33-.09,1.11l0,.53c.4.21-.38.77.21.64-.38,0-.33,1.37-1,1l-.49-.35c-.12.4.3.86.42,1.26-.07,0-.22.09-.3,0,.8.39-.45.89,0,1.59-.58.71-.77,2.06-1.43,2.26a3.13,3.13,0,0,1-.32,2c0-.17,0-.37-.15-.48-.41.37-.24.55-.23,1-.1-.14-.77.75-1.23,1.17.06.72.58.64.84.79-1,.33,0,1.95-1,2.45,0-.25-.13-1-.5-.58-1,.34.28,1.36-.36,2.19l.76,0c-.54.31.06,1.5-.64,1.22.17.38-.52,1.06.2,1.12-1,1.41-.48,3.87-1.94,4.58.07.25-.16.79.22.74.47-.3-.17-.58.12-.67,0,.21.16.29.25.33-.26.46-.39.84-.87.26-.66,1,1,1.34.48,2.68-.28-.11-.41,0-.42.39l.38.85c-.25.88-.74.42-1.24.36,0,.5-.1,1.09.23,1.36l-.71.51c.51-.37.24.44.35.68l-.1-.24c-.22.06-.15.65-.11.94.31,0,.5-.59.62-.89.19.28.1.66.33,1-.47-.16-.43.75-.52,1.13s.39.54.36.67c-.25,0-.12.72-.43.34-.06-.16.28-.32.08-.59-.22.27-.65.2-.4.84.19.48,1,0,.58.81-.1-.24-.29-.3-.44-.49l-.34.79.44.07c-.12.1-.15,0-.22.07.44.28.08,1.25.59,1.47,0,.41-.35.84-.42,1.23l0-.08a1.48,1.48,0,0,0,.13,1.53l-.1,0a1.9,1.9,0,0,0,.23,1.21c-.34.65-1.68.19-1.12.93,0,.68.82,1.06,1.1.8-.29,1.21.41,2.56-.25,3.69.19.17.3.06.42.41-.07,1.49.49,3.08.19,4.42l-5.33-.26a2.73,2.73,0,0,1,.42-.65c.1.55.43.11.68.15-.32-.49.5-.44-.15-.71-.4,0-.59-.1-.84.37a6,6,0,0,1,.72-3.22c-.23.26-.32,0-.4-.24.62.18.85-.58.72-1.21l-.37-.15.46-.32c-.09-.25-.77-.38-.31-.91a.79.79,0,0,0,.44-.11c-.22-.66-.62-1.6-.19-2.22l.65-.46c0-.29-.29-.82-.53-.35.5-1.08.65-1.81,1.19-2.1-.9-2.12-.58-5-.2-7.22l.28.1c.35-.58-.47-.38-.21-.78.25.23.66-.39.94.13.41-.84-.37-1.19-.44-1.77-.37-.13.19.49-.28.32-.13-.11.44-1.17-.12-1.38.25-.19.66,0,.88.17l-.22-.57c.75-.58,1,1.63,1.94,1l0-.51c.66-.4.53,1.39.88.17-.22-.57-1-1.13-1.32-.68,0-1.14-1.31-.67-1.14-1.87.38-.29,0,1,.48.79.53-.52-.14-1.17.08-1.65-.28.54-.81,0-.88-.37.34-.58.51.45.65-.41-.32-.18-.49-1-.79-.34-.72-.39.3-.88-.24-1.41.56-.23,1.14,1,1.51.09-.53.1-.58-1.24-1.39-.81a.52.52,0,0,1,.88-.06c.37-.5-.82-1.38.22-1.46l-.51-.23c.19-.15.34-.38.64-.63.05-.47-.58-1.58.21-1.47-.07-.16.06-1.23-.52-.86-.39.64.33.8-.44,1.11.65-.42,0-1-.16-1.37l.31,0c-.1-.24,0-.76-.31-.93a.27.27,0,0,0,.47-.06l-.45-.28c-.16-1,.84-.15.77-1.07l.31.72c-.07-.16.39-.43.28-.88-.41-.2-.9-.56-1.22-.73-.15-.52.5-.19.1-.73l.46.7c.13.11.74-.39.78-1.08-.11-.45-.68-1.17-1-.5,0-.34.31-.81.6-.51-.1-.79-.46.07-.69-.62.3-.26.76-1.08,1.2-1.57l.67.75,0-.47c.54.64.46-.28,1,.1a1.54,1.54,0,0,0-.2-1c-1,.88-1.26-1.13-2.16-.91-.16-1.29,2.2-.68.88-2.09-.24.21-.88-.46-.67.36.14-.79-.86-.58-.45-1.5.33.71.93-.7,1.41.33-.29-.08-.25.55-.17.71.35-.31.88.11.92-.7-.06-.5,0-1.18-.51-1.11s0,.76-.48.42c-.13-1,.65-1.13-.23-1.58,0,.63-.49.76-.83.73l-.18-.73.33.16c.29-1.15-.59-.37-.45-1.49l.68-.5c.57.29-.32,1.63.62,1.47.08-.73-.4-1-.13-1.68.07.16.09.37.17.52,0-.26,1.28-.48.6-1.55-.26-.55-.33-.15-.67-.18-.07-1.18-.41-1.54-.44-2.3.68.18.1-1.34.77-.48a2.25,2.25,0,0,0,.21,2.52c.82-.4-.15.92.66,1.21.05-.95.84-.87,1.37-1,0-.26-.16-.53-.24-.69-.49-.13-.49.22-1,.22a3.58,3.58,0,0,0-.53-2.68.42.42,0,0,1,.77.2,16.46,16.46,0,0,1,.15-3.8c-.81.76-.16-1.34-.84-.82-.19.64-.77,1.18-1.12.82.06-.4.35,0,.52-.15-.42-.51.71-.78,0-1.29.25,1.15,1,.24,1.6.46-.35-.83.44,0,.45-.78a12.06,12.06,0,0,1-.74-2.77c.61-1.15,0-2.92,0-4,.31-.54,1-.18,1.14-.77s-.76.52-.44-.5l.14.1c-.16-.31.46-1.88-.57-2.16l.77.3c.07-.19-.11-.37-.2-.52.25,0,.47-.24.64.07.52-.64-.11-1.32-.15-2l-.44.45c-.38-1.16.06-2-.14-3.08l.45,0-.29-.67c.43.15.69-.48.32-.82l1.14,1.72c-.25.5-.55-.52-1-.2a1.07,1.07,0,0,0,.21,1.47c0-.4-.05-.42-.23-.73.61-.15.61.46,1,.75,0-.21.15-.52,0-.56A2.41,2.41,0,0,1,577,219c-.25-.46-.38.26-.56.09.54,0,.72.7.59,1.56-.62.62.44,1.6.27,2.59a3.46,3.46,0,0,1-1.23-1.5c-.27.62,0,.69-.24,1.31.41.3,1,.5,1.3,1.31l-.41,0c.21.73.81.73.71,1.67-.18,1.6-.21,3.25-.26,4.48l-.41,0c.86.69.3,2.27.66,3.19-.43,1.55.32,3.4-.41,4.18a41.3,41.3,0,0,1,.14,8l-.57-.51c.41.53-.35.31-.29.82.5-.55.58.72.92,1.1a6.4,6.4,0,0,0,.21,4.05l-.41,0c.7,1.19-.08,2.5-.31,3.9-.18.15-.58.38-.57.8a5.52,5.52,0,0,1,.83,2.38,12.27,12.27,0,0,1-.68,3c.63,3.18-.29,6.28-.12,9.54l-.5.18c.64,3.23-.79,6.94-.66,9.65l-.77-.37c-.37.79-.06,1.92.54,1.79-.37.79.07,2.13-.68,2.56-.28.82.21,1.1.2,1.82a12.11,12.11,0,0,0-.75,3.91l.12-.39a.32.32,0,0,0-.6.11c.12.63-.59,2.15.47,1.73a3.28,3.28,0,0,0-.2.48l-9.13,27L567,292.25c.18-1.7-.7-3.75-.09-5.33-.26.15-.33-.28-.5-.46,0-1.56.53-3.19.08-4.44.13-.25.45.4.48-.23-.1-.38-.35,0-.49-.48-.34-2.54.7-5.08.86-7.35,0-1,0-2.06.06-3.09s.23-2.05.38-3.07.29-2,.49-3,.4-2,.58-2.93l.18.08a3,3,0,0,1,.4-2.11c.32-.68.59-1.33.17-2,.26-.25.38-1.12.68-.81a3.71,3.71,0,0,1,.47-2,4.63,4.63,0,0,0,.55-2.32.55.55,0,0,0,0,.39c.87-1.32.65-2.79,1.56-4.17,0,.18,0,.48.15.58.56-.45-.28-1.64.72-1.65.11-.33-.36-.39-.41-.18a49.9,49.9,0,0,0,1.91-5c.58-1.73,1.08-3.53,1.8-5.21,1.63-2.12,1.5.54,1.75-1.62.23-.07-.27-.27-.08-.21.1-.84,1.47-.64,1.3-1.34-.62-.07-.11-.47-.42-.65,1.09-1.23,1.69-1.25,1.9-2.57l.22.23c-.09-1.73,1.26-2.92,1-4.51,2-3.55,4.2-6.93,6.49-10.21,1.14-1.65,2.4-3.19,3.62-4.78a34.51,34.51,0,0,1,4.4-4.67,23.9,23.9,0,0,1,2.91-2,16.52,16.52,0,0,1,4-1.71,9.19,9.19,0,0,1,5.25,0,6.9,6.9,0,0,1,3.88,3.19,9.12,9.12,0,0,1,1,5.19c0,.23,0,.46-.07.7l-.08.62c0,.28-.07.57-.13.85-.11.56-.21,1.12-.36,1.67a24.57,24.57,0,0,1-2.52,6.17,6.86,6.86,0,0,0-2.55,3.57c-.06-.14,0-.27-.19-.22.49.45-.78,1.3-.39,1.82-1.88,2.49-3.52,4.72-5.63,7,.28-.41,0-1-.31-.5l-.11.73-.2-.05c-.2.35-.28.89.16.74a40.12,40.12,0,0,1-8.78,7.69c-3.22,2.17-6.57,4-9.88,5.9a61.82,61.82,0,0,0-5.66,2.91l-2.13.56a21,21,0,0,1-2.51.5l-.72.07c-.29,0-.58,0-.86,0a7.67,7.67,0,0,1-1.66-.2,7.06,7.06,0,0,1-2.89-1.46,7.93,7.93,0,0,1-1.92-2.56,8.48,8.48,0,0,1-.78-2.91,7.52,7.52,0,0,1,.34-3.14,6.84,6.84,0,0,1,2-3A32.74,32.74,0,0,0,565.95,244.12Z"/><path class="cls-2" d="M576.85,214.24c-.32.21-.48.86-.93.36C576.22,214.52,576.56,214.18,576.85,214.24Z"/><path class="cls-2" d="M573.69,231.47c.1,0-.13.24-.19.3,0-.21-.3-.41-.13-.58C573.4,231.4,573.55,231.37,573.69,231.47Z"/><path class="cls-2" d="M573.41,235.84c-.29-.07-.5-1-.53-1.56Z"/><path class="cls-2" d="M572.09,239.87c-.26.34-.39.24-.37-.23C571.88,239.61,572,239.77,572.09,239.87Z"/><path class="cls-2" d="M572.75,240.19a.84.84,0,0,1-.35.66C572.64,240.84,572.26,240.06,572.75,240.19Z"/><path class="cls-2" d="M571.48,249c0,.21.22.69-.11.86C571.61,249.62,571.06,248.77,571.48,249Z"/><path class="cls-2" d="M571.65,253.08c0,.13-.09.18,0,.34-.15.23-.35,0-.36-.25Z"/><polygon class="cls-2" points="575.86 256.59 575.89 257.05 575.63 256.91 575.86 256.59"/><path class="cls-2" d="M589.06,227.2c.09-.46.4-.1.48-.14C589.34,227.4,589.32,226.74,589.06,227.2Z"/><polygon class="cls-2" points="598.72 212.53 598.63 212.63 598.24 212.18 598.72 212.53"/><path class="cls-2" d="M584.51,287.38c.28-.69-.64.05.07-.52C584.72,287.07,584.8,287.29,584.51,287.38Z"/><path class="cls-2" d="M632.76,263.32a1.6,1.6,0,0,1-1.73.15,2.38,2.38,0,0,1-1.19-1.56c-.39-1.34-.09-2.72-.39-4.06,0-.31.81.2.72-.5-.77-2.65.55-6.43,1.94-9.28l.2.22c.26-.55-.4-1.37-.19-2,.16,0,.19.23.42.12-.44-.23,0-1.13-.34-1.44.22-.21.59-.13.84-.4l-.47-.43c-1.11-1.17.47-2.33,0-3.75.11.08.19.23.32.14a8.36,8.36,0,0,1-.14-1.18l-.28,0a44.51,44.51,0,0,1-.27,6.1.84.84,0,0,0-.73-.17c.54.21.56,1,.56,1.62-.63.18.33,1.18-.13,1.87l-.12-.09c.49.66-.5.75.13,1.33l-.52.26c.76.41-.58.7-.27,1.24l.17,0c.11.47-.34.6-.3,1l-.1,0c0,1-.56,1.4.06,1.53-.57.21,0-.95-.87-.61a34.38,34.38,0,0,1-1.91,9.24c-.35.26-.49.46-.75.46,0,.33-.24,1.15,0,1.52,0-.1-.37.09-.46.24-.41.46.48.81,0,1.31a.51.51,0,0,0-.51-.43c.31.66,0,1.31-.05,2-.07-.13-.08-.29-.28-.34.31.84-.53,1.14-.4,1.83l-.27-.34c-.77.74.62.54.07,1.23,0-.23-.19-.22-.32-.31.33,1-.36,2.08-.52,2.88,0-.07-.12-.1-.12-.1a21.8,21.8,0,0,0-1.15,2.48c-.33.21-.71-.57-1.08.26.66.39-.65,1.43.35,1.49-.58.59-1.62,1.36-1.84,1.9.06-.45-.91-.39-.49-.88h-.66c-.16-.27.42-.25,0-.42-.19.23-.65,1-1,1.11a11.33,11.33,0,0,1-.24,1.2,1.83,1.83,0,0,1-.78,1.11c.28-.48-.61-.6-.39-.86a6.77,6.77,0,0,1-.3.94c-.18.46-.4.94-.4.94-.33.16-.27-.52-.69-.18.08.18-.1.36-.22.56-.08,0-.45.12-.85.15s-.87-.07-.94-.44.59-.18.18-.42c-.64,0-.7.27-1.37.16v-.1c-.38-.17-1.36-.18-1.06.4.31.16,0-.45.43-.07-.45.29-1.4,0-2-.53.29.08.38-.1.59-.2a3.1,3.1,0,0,1-1.56-.71,7.13,7.13,0,0,1-1.18-1.32c-.32.13.74.12.66.33a6,6,0,0,0-.82-1.9,2,2,0,0,1-.26-1.77c.09.16-.47.16-.38.14,0-.62.47-.65.24-1,.29-.06-.14-.48-.24-.88-.23-.2.14-.11.19.24a6.28,6.28,0,0,1-.32-3.85c-.2,0-.7-.76-.68-1l.46.12c.27-.25,0-.94.38-1-.55-.61.41,2.3,0,1.48.39-.2-.71-1.14-.09-.95,0-.56-.48-1.12,0-1.63-.08.15.61.48.6,0,0-.79-.21-.24-.33-.89l-.16-.41c-.44-.06.11-.7-.4-.44.37-.07-.13-1.17.6-1l.57.16c0-.34-.57-.61-.8-.9.06,0,.18-.12.28-.09-.88-.14.16-.8-.49-1.27.37-.68.22-1.81.82-2.07a2.17,2.17,0,0,1-.19-1.71c.07.13.07.31.26.36.31-.35.09-.48,0-.85.12.1.62-.7,1-1.09-.19-.57-.69-.45-1-.55.94-.37-.35-1.59.53-2.09.09.2.32.84.6.43.94-.36-.5-1.07,0-1.8l-.75.09c.5-.28-.25-1.21.47-1-.22-.3.37-.89-.34-.9a5,5,0,0,0,.51-2.11,5,5,0,0,1,.09-.52c0-.08,0-.16.07-.24a.43.43,0,0,1,.08-.11,1.83,1.83,0,0,1,.66-.42c-.11-.1.06-.4-.33-.26s.26.19,0,.29c0-.09-.21-.08-.31-.07a.73.73,0,0,1,.86-.33c.27-.35,0-.44-.35-.44s-.68.07-.5-.26c.32-.18.45-.3.42-.44a2.56,2.56,0,0,0-.53.14,5.47,5.47,0,0,1,1.35-1.37c-.07-.17,0-.53-.43-.16l.38-.55.38-.59c-.55.85-.33.2-.47.27l.13-.06c.25-.35.13-.48.06-.52a6.86,6.86,0,0,0-.66,1.26c-.25.22-.17,0-.47.28a1.83,1.83,0,0,0,.52-1.15c.14-.4-.52.63-.5.56.31-.5.07-.35.5-.94.09-.09-.31.63,0,.3s.78-1.37.4-1-1.19,2.08-.79,1.1c.15-.19.39-.6.6-.9l.34-.94-.55,1,.26-.52c-.57,1-.15-.19-.81,1.09-.05,0,.4-1.11.47-1.42l0-.08c.34-.93.13-.75-.26,0l.12-.29c0-.21-.06-.24-.4.53.39-1.33,2.09-5.75,1.32-4.2-.12-.33-1.14,2.46-1.43,3.59.1-.73-.16-.54-.39-.42-.06,0-.09.13-.12.18s0,.08-.05.06a3.87,3.87,0,0,1,.1-.81c-.17.71-.24,1.08-.37,1.56-.07-.07-.29.64-.43,1s-.21.39-.19-.57a15.28,15.28,0,0,0,.22-1.91l0,.27c-.12.6,0-1-.17.72a14.51,14.51,0,0,0-.11,1.85c-.21.87-.37,1.15-.46.52a4.59,4.59,0,0,1,0,1c0-1.41-.14-1.32-.22-.69l0,.77-.05-.33-.06-.32c0,.31.12,1.54,0,1a6.2,6.2,0,0,0-.13-.66c0,.75.09,1.67-.11,1.35a5.48,5.48,0,0,0-.34-.58c0,.18.1.68.25.76-.31-.14-.46,0-.87-.24.19.93.54.94.08,2.16a15.23,15.23,0,0,1-1.26,2.65l-.24-.18c-.47.31.34.46,0,.67-.17-.27-.71.05-.84-.45-.6.48,0,1-.05,1.5.31.24-.05-.44.34-.14.09.13-.71.73-.24,1.09-.28.05-.6-.27-.77-.46l.05.51c-.85.16-.53-1.62-1.53-1.51l-.1.39c-.72.06-.13-1.25-.77-.46.06.51.64,1.23,1,1-.27.87,1,1,.56,1.84-.42.08.28-.72-.23-.78-.62.19-.18.93-.51,1.22.4-.3.75.31.71.61-.47.31-.35-.53-.71.06.25.25.18.94.64.55.56.57-.52.55-.16,1.15-.58,0-.78-1.2-1.36-.64.52.13.2,1.16,1.06,1.14a.58.58,0,0,1-.83-.29c-.48.24.37,1.35-.6,1l.4.37c-.21,0-.42.15-.77.22-.18.33.09,1.4-.61,1,0,.14-.4.9.24.85.54-.33-.08-.73.72-.66-.71.06-.28.72-.24,1.09l-.3-.09c0,.22-.22.57,0,.82a.3.3,0,0,0-.45-.14l.33.38c-.13.77-.81-.21-1,.5l-.08-.66c0,.14-.49.17-.51.54.32.31.67.77.91,1,0,.45-.51-.05-.3.5l-.22-.7c-.09-.13-.79,0-1,.5,0,.38.29,1.14.74.75-.12.25-.52.48-.7.14-.15.62.45.13.45.73-.35.07-1,.5-1.58.68l-.39-.82-.17.33c-.3-.69-.5,0-.92-.49-.2.19-.15.55-.12.84,1.2-.24.81,1.34,1.7,1.54-.24,1-2.21-.38-1.44,1.18.28-.05.66.69.72,0-.37.52.6.78-.05,1.29-.08-.66-1.07.14-1.18-.81.24.18.4-.3.38-.45-.42.08-.77-.44-1.06.14-.1.39-.32.89.12,1s.22-.57.57-.11c-.19.79-.94.56-.28,1.25.16-.48.68-.36,1-.2l-.07.61-.25-.25c-.63.73.42.51-.05,1.28l-.78.09c-.42-.44.8-1.06-.1-1.33-.29.51,0,.89-.41,1.28,0-.15,0-.31,0-.45-.12.17-1.32-.18-1,.89.06.51.25.25.56.41-.32.89-.12,1.3-.34,1.86-.56-.41-.53.93-.86,0a1.51,1.51,0,0,0,.62-1.92c-.87,0,.43-.61-.22-1.15-.35.67-1,.29-1.57.17-.12.17,0,.45,0,.6.4.29.51,0,1,.25a2.45,2.45,0,0,0-.37,2.17c-.34.15-.74-.15-.64-.47a10.43,10.43,0,0,1-1.38,2.69c1-.21-.29,1,.49.95.38-.38,1.09-.53,1.29-.12-.19.26-.31-.16-.52-.12.22.55-.9.26-.46.92.16-.94-.8-.58-1.29-1,0,.75-.39-.22-.67.37a8.08,8.08,0,0,1-.27,2.31c-.93.57-1,2.09-1.34,2.84-.47.25-1-.32-1.29.05s.86,0,.22.55l-.09-.13c0,.29-1.07,1.13-.25,1.79l-.59-.55c-.13.11,0,.31,0,.46-.23-.1-.51,0-.55-.33-.69.23-.37,1-.58,1.48l.56-.12c-.06.82-.53,1.22-.83,1.83l-1.3-.72a2.35,2.35,0,0,0,.21-.39l.36.26.07-.59a.37.37,0,0,0,.64-.35l.16,1.76c-.43.18-.22-.64-.72-.68a.48.48,0,0,0-.39.2l.63.35a.74.74,0,0,0,0-.89c-.18.27-.1.32-.06.61-.6-.17-.38-.59-.65-1,0,.16-.32.3-.16.41a1.62,1.62,0,0,1,.19-1.25c.06.44.43,0,.53.18-.47-.27-.4-.81,0-1.36.77-.17.18-1.32.67-2a2.89,2.89,0,0,1,.58,1.6c.46-.33.22-.5.68-.83-.27-.39-.76-.81-.71-1.5l.38.14c.06-.61-.48-.87-.06-1.49a34.36,34.36,0,0,0,1.75-3.08l.38.14c-.55-.86.49-1.76.46-2.57.89-.94.82-2.58,1.72-2.84a28.35,28.35,0,0,1,2.37-5.89l.36.6c-.21-.55.42-.08.52-.48-.62.2-.31-.76-.51-1.17.86-.7,1-2.07,1-3.05l.38.15c-.28-1.15.8-1.81,1.41-2.75.21,0,.64,0,.75-.37a4.14,4.14,0,0,1-.09-2.08,7.81,7.81,0,0,1,1.44-1.93c.29-2.6,1.95-4.56,2.62-7.08l.51.05c.3-2.81,2.12-4.32,3.72-8.46l.18.53.19.51a2.84,2.84,0,0,0,.63-1.39,1.71,1.71,0,0,0-.11-1.31,7.17,7.17,0,0,0,.87-1.7c.28-.63.57-1.15.83-.92.54-.69.53-1.8,1-2.86a18.75,18.75,0,0,0,2.5-4.49l-.24.35c-.14.64-.19,1.48,0,1.17a18.16,18.16,0,0,1,.8-1.71c.17-.16.31-.51.32-1.7.15.39.34.49.55.5a1,1,0,0,0,.33-.06l.26-.16c.35-.22.68-.24.84.22,0-.35.18-.44.28-.66l.17,0,.08,0a.29.29,0,0,1,.13.08,10.35,10.35,0,0,1,.78.73c.45.46.75.81,1.07.83,0,.28-.33.34-.13.69.16.06.16-.41.38-.39a1.24,1.24,0,0,1,.59.69,7,7,0,0,1,.31,1.31l.1.73c0,.22,0,.61,0,.88a7.57,7.57,0,0,0,.18,1.54,2.1,2.1,0,0,1,.18.51l.07.76c0,.52.07,1.06.09,1.61l0,.85,0,1-.12,2c-.06,1.29-.28,2.72-.42,4.06l-.24,2-.24,1.89-.19-.06c.6,1.12-1.09,2.24-.09,3.2-.22.21-.22.88-.56.66.41.87-.81,2.14-.31,3.37,0-.1,0-.17-.06-.3-.59,1.09-.14,2.17-.69,3.33-.07-.13-.1-.36-.29-.42-.44.42.68,1.2-.29,1.34,0,.27.45.25.44.08-.68,2.59-.37,5.45-.25,8.13-.62,1.9-1.59.07-.93,1.61-.18.12.36.1.16.11.25.59-1.08.92-.57,1.33.57-.17.33.27.68.28-.35,1.16-.89,1.49-.39,2.3l-.31,0a4.33,4.33,0,0,1,.83,1.4,1.34,1.34,0,0,0,1,.91,2.92,2.92,0,0,0,.28.53.79.79,0,0,0,.19.19.78.78,0,0,0,.42.13.7.7,0,0,0,.2,0l.36-.12a6.94,6.94,0,0,0,1.23-.61,12.69,12.69,0,0,0,4.18-5.16,37.94,37.94,0,0,0,3.07-7.66c.89-2.77,1.73-5.56,2.72-8.38,1.12-1.16,1.12-1.28,1.16-2.85.11.09.12.19.26.12-.62-.22.18-1.07-.4-1.35a60,60,0,0,0,1.18-6.39c0,.36.51.63.54.21l-.34-.51.19,0c0-.3-.31-.67-.57-.41a48.74,48.74,0,0,1,.72-5.56l8.6,1.2c-.83,3.81-2,7.53-2.49,11.34a19,19,0,0,0-.65,4.75c-.38,1-.79,2.13-1.06,2.93a5.42,5.42,0,0,0-.36,1.9,1.47,1.47,0,0,0,0,.27l0,.06h0l-.39.06h0l.05,0,.1,0,.21.09a.42.42,0,0,0,0-.17c-.08-.07-.06,0-.05,0s0,0,0,0a.5.5,0,0,0,.15.07.33.33,0,0,0,.15,0s0,0,0,0a2.4,2.4,0,0,0,.08.38c.15.53.46.59.09.43l.05,0,.12.06h0s0,0,.05.06a.58.58,0,0,1,.12.33A.68.68,0,0,1,632.76,263.32Z"/><path class="cls-2" d="M584.09,288.16c-.36,0-.79.29-.94-.29C583.44,288,583.87,288,584.09,288.16Z"/><path class="cls-2" d="M588.86,280c-.08-.06.2-.12.27-.13-.05.16.13.42-.08.47C589.1,280.19,589,280.15,588.86,280Z"/><path class="cls-2" d="M590.55,277c.24.17.12.95,0,1.36Z"/><path class="cls-2" d="M593.05,274.58c.34-.14.43,0,.26.32C593.16,274.86,593.15,274.71,593.05,274.58Z"/><path class="cls-2" d="M592.56,274.08a.64.64,0,0,1,.53-.33C592.86,273.65,593,274.38,592.56,274.08Z"/><path class="cls-2" d="M596.43,268.14c.05-.16,0-.6.36-.59C596.51,267.6,596.76,268.45,596.43,268.14Z"/><path class="cls-2" d="M597.49,265c.06-.09.13-.1.11-.25.21-.11.31.16.26.32Z"/><polygon class="cls-2" points="608.46 254.03 608.37 253.66 608.64 253.75 608.46 254.03"/><path class="cls-2" d="M609.48,281.55c.5.23.09.46.13.56C609.23,281.79,610,282,609.48,281.55Z"/><polygon class="cls-2" points="623.16 275.72 623.11 275.82 622.63 275.46 623.16 275.72"/><path class="cls-2" d="M677.9,235.39c.55.52.17-.63.48.26C678.12,235.69,677.89,235.69,677.9,235.39Z"/><path class="cls-2" d="M720.15,253.8c-1.27,2.84-5,3.66-7,6.06-.26.24-.37-.75-.92-.16-1.76,2.55-6.19,4.22-9.71,4.6l.1-.29c-.66.08-1.13,1.1-1.83,1.22-.06-.15.13-.28-.09-.43,0,.52-1.11.6-1.29,1-.32-.09-.4-.46-.79-.56l-.23.62c-.75,1.54-2.62.59-4,1.46.05-.14.18-.26,0-.36-2.28,1.18-5.44,1.19-8.23,1.13a.74.74,0,0,0,.14-.74c-.2.56-1.07.57-1.83.56-.21-.65-1.38.28-2.18-.29l.11-.1c-.82.4-.82-.61-1.57-.12l-.23-.58c-.6.64-.71-.76-1.36-.64l-.06.16c-.56-.08-.59-.57-1.07-.72l0-.1c-1.08-.47-1.23-1.32-1.65-.83.06-.63,1,.58,1-.4a6.41,6.41,0,0,1-3-4.5,14.86,14.86,0,0,1,.29-5.53c.33-.35.47-.59.73-.62-.05-.38.18-1.34,0-1.73,0,.12.38-.14.45-.32.39-.56-.49-.88,0-1.49.08.32.25.47.51.45a4.21,4.21,0,0,1,.1-2.22c.07.14.07.33.27.37-.29-.94.6-1.31.5-2.09l.25.38c.81-.87-.6-.59,0-1.39,0,.26.18.24.31.33-.29-1.09.52-2.35.73-3.25,0,.07.12.1.12.1A23.64,23.64,0,0,0,680,240c.34-.26.72.56,1.12-.39-.67-.36.67-1.65-.37-1.58a9.62,9.62,0,0,0,1.76-2.34c0,.49,1,.18.61.81l.69-.18c.2.24-.42.39,0,.48.19-.3.57-1.34.88-1.51.05-.8-.22-1.84.45-2.75-.12.59.81.31.68.66,0,0,0-.53,0-1.05v-1.06c.23-.3.49.34.71-.19-.17-.11-.08-.37-.08-.61.14-.05,1.06-1.28,1.68-.82.31.11-.38.52.11.44.53-.45.4-.67,1-1.09l.07.07c.42-.18,1-1,.37-1.09-.31.16.33.31-.21.39.05-.55.81-1.12,1.6-1.41-.22.21-.12.38-.14.61a4.48,4.48,0,0,1,3.55-1.46c0-.17-.13,0-.31.12s-.37.36-.47.26c.86.27,1.75.31,2.62.61a3.86,3.86,0,0,1,1.19.61,2,2,0,0,1,.67,1c-.19-.15.3-.42.24-.34.52.77,0,1,.46,1.37-.22.18.38.55.63,1.06.29.21-.09.17-.28-.26a5.4,5.4,0,0,1,.88,2.18,5.51,5.51,0,0,1-.17,2.85c.2,0,.58,1.06.47,1.42l-.42-.23c-.32.26-.22,1.17-.63,1.13.16.43.27-.29.27-1s-.06-1.37.08-.83c-.39.18.44,1.53-.12,1.19-.14.68.15,1.5-.48,2,.13-.17-.42-.74-.56-.21-.29.93.11.35-.06,1.13l0,.5c.39.21-.42.73.19.62-.38-.05-.39,1.33-1,.92l-.46-.37c-.13.37.26.86.35,1.27-.07,0-.22.06-.3,0,.78.49-.52.81-.18,1.55-.7.58-1.14,1.85-1.81,1.89a2.88,2.88,0,0,1-.82,1.84c0-.17.12-.35,0-.49-.48.23-.36.45-.49.88-.06-.16-.94.46-1.52.65-.2.65.31.79.5,1-1.06-.11-.75,1.76-1.84,1.81.06-.25.28-1-.23-.74-1-.14-.29,1.32-1.28,1.7l.69.34c-.62,0-.7,1.3-1.15.7,0,.41-1,.62-.39,1.06a8.58,8.58,0,0,0-2.1,1.57c-.66.58-1.32,1-2.1.8-.11.22-.63.46-.31.68.54.1.24-.53.52-.4a.33.33,0,0,0,0,.41c-.49.16-.83.34-.81-.4-1.12.27-.17,1.64-1.46,2.21-.11-.28-.26-.31-.58-.06l-.37.83c-.82.37-.78-.3-1.07-.71-.35.32-.85.6-.84,1l-.8-.24c.58.19-.18.45-.33.65l.14-.21c-.18-.14-.59.22-.81.4.2.24.76.09,1.07,0-.11.3-.47.43-.63.81-.14-.48-.85.05-1.21.18s-.24.62-.36.66c-.12-.22-.65.29-.5-.19.09-.14.41.07.52-.25-.34,0-.5-.45-.88.11-.3.4.52.83-.39.89.15-.2.11-.39.19-.62l-.83.08.15.42c-.14-.06-.09-.12-.16-.16,0,.52-1,.61-1,1.17-.36.2-.89.05-1.26.15l.05-.06a1.42,1.42,0,0,0-1.33.68v-.1a1.87,1.87,0,0,0-1,.66c-.72-.11-.71-1.53-1.21-.77-.61.2-.76,1-.42,1.26-1.22,0-2.35,1.08-3.58.61-.13.21,0,.3-.33.46a18.58,18.58,0,0,0-2.63.54,3.81,3.81,0,0,1-2.44-.2c.49-.23,0-.45,0-.7-.38.43-.52-.37-.62.33.07.4,0,.6.54.72a6.24,6.24,0,0,1-1.77.27,3.12,3.12,0,0,1-1.44-.29c.29.19.07.31-.16.43.07-.64-.69-.74-1.28-.51l-.09.39-.37-.4c-.23.13-.28.81-.85.39a.83.83,0,0,0-.15-.43c-.61.27-1.53.74-2.15.35l-.47-.61c-.28,0-.82.31-.33.54-1.13-.49-1.89-.71-2.15-1.28a5.72,5.72,0,0,1-4.09-.48,7.43,7.43,0,0,1-2.14-1.58,7.59,7.59,0,0,1-1.47-2.35l.31,0c-.08-.95-.66-.28-.67-1,.34.19.42-.79.92-.23,0-1.17-.77-1.36-.95-2.11-.39-.1.27.57-.22.46-.07-.06,0-.47,0-.86s0-.76-.27-.86c.25-.25.66,0,.88.14l-.23-.63c.38-.32.63.13.92.55s.63.81,1.06.47l-.06-.5c.63-.39.61,1.29.89.14-.25-.51-1-1.09-1.33-.64,0-1.14-1.29-.72-1-2,.4-.27-.1,1,.41.85.56-.48,0-1.2.25-1.67-.35.51-.81-.1-.81-.51.42-.55.43.54.71-.32-.28-.23-.27-1.11-.71-.48-.62-.54.48-.86.1-1.52.6-.09.85,1.28,1.44.45-.55,0-.23-1.38-1.12-1.17.28-.32.67-.2.86.18.48-.38-.33-1.61.67-1.36l-.4-.4c.23-.08.46-.25.84-.37.21-.42.09-1.7.77-1.27,0-.18.57-1.09-.11-1-.63.42,0,.88-.87.85.77-.12.41-.91.45-1.35l.3.1c0-.26.36-.69.16-1a.26.26,0,0,0,.44.16l-.26-.46c.34-.92.81.27,1.21-.57l-.08.78c0-.17.55-.18.67-.61-.25-.38-.49-.93-.67-1.25.15-.53.52.1.47-.57l0,.84c.06.17.82,0,1.22-.48.14-.42.07-1.34-.54-.94.2-.28.7-.49.78-.08.37-.68-.42-.21-.21-.89.39,0,1.24-.42,1.88-.53l.11,1,.29-.33c.07.81.52.06.77.7.27-.16.34-.57.42-.89-1.31,0-.34-1.62-1.16-2,.65-1.08,2.1.89,1.94-1-.31,0-.39-.91-.73-.17.59-.49-.29-1,.6-1.38-.2.73,1.13.11.85,1.16-.17-.25-.53.23-.57.39.46,0,.6.66,1.13.11.26-.4.69-.86.3-1.12s-.46.55-.62,0c.53-.79,1.19-.36.83-1.27a.68.68,0,0,1-1.09,0l.35-.65.14.33c1-.62-.19-.67.66-1.38l.84.12c.19.59-1.33.93-.54,1.46.53-.46.37-1,1-1.26-.05.16-.19.32-.24.48.21-.15,1.22.58,1.49-.63.2-.56-.12-.34-.34-.61.8-.84.86-1.34,1.43-1.87.3.63,1.11-.78.87.29-.56-.09-1.86,1-1.73,1.8.84.33-.75.51-.38,1.28.68-.59,1.18,0,1.63.33.21-.13.24-.45.3-.61-.24-.44-.48-.22-.82-.59a3.84,3.84,0,0,0,1.62-2.1.42.42,0,0,1,.33.72,9.87,9.87,0,0,1,3.13-2c-1.07-.33,1.08-.8.31-1.13-.67.13-1.44-.06-1.29-.56.39-.16.16.31.39.38.27-.64,1,.24,1.21-.61-1,.77.23,1,.31,1.63.57-.68.16.41.88.08a7,7,0,0,1,2.28-1.66c1.27.22,2.9-.58,4-.62.55.32.19,1,.75,1.15s-.47-.79.51-.42l-.1.13c.33-.16,1.71.64,2.19-.26l-.45.69c.16.11.36,0,.53-.08,0,.25.1.51-.21.61.44.63,1.19.21,1.81.42l-.24-.57c1.21.06,1.72.81,2.73,1.26l-.27.35.67.16c-.37.25-.1.8.37.76l-.3,0a4.82,4.82,0,0,0-.66,0h-.64l-.29,0c-.22-.44.68-.22.7-.72s-.93-.86-1.26-.52c.3.21.37.11.69.13-.2.59-.66.3-1.08.57.17.06.31.33.43.18a2.05,2.05,0,0,1-1.3-.19c.45-.08-.06-.43.14-.54-.24.48-.79.46-1.42.14-.37-.73-1.38.11-2.14-.09a2.43,2.43,0,0,1,1.43-1.06c-.51-.35-.61-.09-1.15-.4-.31.39-.53,1-1.2,1.24l0-.41c-.63.23-.58.81-1.35.78a9.77,9.77,0,0,0-3.62.7l-.19-.36c-.2,1-1.63,1.09-2.11,1.84-1.36.34-2.16,1.92-3.13,1.8-1.68,1.75-3,3.45-4.82,5.18l-.13-.72c0,.63-.45,0-.7.36.7,0,0,.87.07,1.35a4.59,4.59,0,0,0-2,3l-.34-.23c0,1.24-1.27,1.75-2.08,2.68-.22,0-.65,0-.82.32a5.54,5.54,0,0,1-.18,2.21,12.67,12.67,0,0,1-1.52,2,31.31,31.31,0,0,1-.73,3.81,6.42,6.42,0,0,0-.13,3.43l-.46.18a7.83,7.83,0,0,0,.76.9,6.33,6.33,0,0,0,.8.74,4.61,4.61,0,0,0,2.88.92l-.36.76c.6.39,1.55,0,1.45-.56.68.31,1.78-.25,2.17.45.72.2.9-.27,1.5-.39a7.37,7.37,0,0,0,3.32,0l-.34,0c-.14.18-.14.54.21.56.5-.27,1.9,0,1.31-.88,1.52.49,3.26-.89,4.79-.38-.17-.24.17-.34.27-.56,1.21-.35,2.67-.1,3.51-.86.23.06-.17.54.33.39.26-.2-.1-.33.21-.6,1.78-1.08,4.09-1,5.76-1.92,2.8-1.9,5.8-3.63,8.25-5.69l.1.18c.17-.64.76-.9,1.32-1.18s1.06-.59,1-1.31c.31,0,.74-.62.87-.22.12-.49.62-.82,1.16-1.21a2.8,2.8,0,0,0,1.17-1.57c-.09.07-.1.15-.12.3A4.33,4.33,0,0,0,689,246.5a5.11,5.11,0,0,1,1.17-1.45c0,.16-.1.39,0,.54.61-.21,0-1.45,1-1.15.16-.24-.27-.43-.35-.27a10.1,10.1,0,0,0,1.25-1.81,11.67,11.67,0,0,0,1-2l.77-2.12a8.28,8.28,0,0,0,.28-1c.06-.31.14-.62.19-.93.49-.8.87-.78,1.11-.71s.31.14.07-.66c.2-.1-.34-.13-.15-.13-.2-.56,1.12-.82.63-1.24-.57.16-.33-.25-.69-.24.09-.26.17-.47.23-.65a2.5,2.5,0,0,0,.16-.48.66.66,0,0,0-.32-.76l.3-.08c-.58-.19-.82-.37-1.08-.44a.71.71,0,0,0-.85.38,1.37,1.37,0,0,0-.77.12,5,5,0,0,0-1.32.79,11.74,11.74,0,0,0-1.45,1.38l-.35.4-.38.47c-.25.31-.52.62-.76.94a51.18,51.18,0,0,0-5.1,8.12,37,37,0,0,0-3.52,8.72c-.39,1.49-.78,3.12-1,4.46a9.38,9.38,0,0,0,0,3.23,1.35,1.35,0,0,0-.17,1.05c.12.24.34.42.86.66-.12.07-.2,0-.22.18.47-.46.67.48,1.15,0a7.28,7.28,0,0,0,2.47,1.16,23.85,23.85,0,0,0,3.13.61c-.36,0-.63.51-.19.54l.51-.35.05.19c.31-.07.66-.35.38-.59a59.2,59.2,0,0,0,8.62-.43,26.78,26.78,0,0,0,8.63-2.59,16.07,16.07,0,0,0,4.49-2.56,35.18,35.18,0,0,0,12.36-7.39A3.73,3.73,0,0,1,720.15,253.8Z"/><path class="cls-2" d="M677.28,234.76c.15-.35-.15-.85.49-.87C677.6,234.15,677.53,234.6,677.28,234.76Z"/><path class="cls-2" d="M662.58,230.2c0,.1-.28,0-.36,0,.19-.11.26-.45.49-.36C662.52,229.91,662.61,230,662.58,230.2Z"/><path class="cls-2" d="M658.66,232.25c-.11-.27.53-1,1-1.33,0,0-.27.33-.52.66Z"/><path class="cls-2" d="M654.73,233.84c-.42.05-.45-.12-.08-.43C654.78,233.51,654.71,233.67,654.73,233.84Z"/><path class="cls-2" d="M655,234.53a.83.83,0,0,1-.71.2C654.43,234.9,654.72,234.09,655,234.53Z"/><path class="cls-2" d="M648.4,240c-.12.17-.23.67-.6.6C648.11,240.57,648.18,239.58,648.4,240Z"/><path class="cls-2" d="M646.19,243.37c-.09.09-.17.1-.2.27-.25.11-.27-.22-.17-.4Z"/><polygon class="cls-2" points="690.53 252.75 690.34 253.15 690.17 252.91 690.53 252.75"/><path class="cls-2" d="M691.33,226.05c-.46.34-.45-.14-.55-.15C691.24,225.71,690.72,226.29,691.33,226.05Z"/><polygon class="cls-2" points="680.35 239.29 680.4 239.18 680.9 239.53 680.35 239.29"/><path class="cls-2" d="M629.17,234.77c-.11-.08-.48-.19-.2-.11S629.35,234.84,629.17,234.77Z"/><path class="cls-2" d="M625.89,241.61c-1.37-.68.1-.19-.76-.66-.06,0,.77.33.59.23-1.05-.55-.34-.42.55-.16l.21.1c.17,0-.54-.29-.43-.26l.4.17c-.43-.19-.18-.13-.5-.27l.71.28-.49-.22c-1.16-.54.12,0-.47-.36l.31.14c-.68-.38-.51-.42-.73-.62l.69.3a3.6,3.6,0,0,1-.73-.38c.54.22-.47-.25-.17-.15l.12.05c-.55-.26.34.11-.33-.19l.43.17c-.75-.33.4.14,0,0l-.16-.07c-.18-.09.2.06.08,0l.09,0c-.19-.12.24,0-.34-.21.48.19.2.12.89.4-.56-.37-.39-.43-.36-.55l.54.2a2.31,2.31,0,0,0-.39-.23l.34.13c.23.07-.64-.3-.36-.21l.56.25a2.08,2.08,0,0,1-.51-.3l.34.15c-.51-.25.13,0-.19-.16l.34.15c.43.14-.71-.31-.45-.24l.38.17a1.73,1.73,0,0,1-.58-.37l.14.06c-.06-.06.14,0-.11-.16a5.37,5.37,0,0,0,.72.27c-.68-.29-.26-.17-1-.49.12,0,.4.09.17,0,.25.12.84.34.89.39l.42.16c.28.12-.1,0,.25.12,0,0-.28-.17-.16-.13-.41-.2-1.18-.55-1.25-.62.26.13.76.31.87.37l-1.29-.61s.54.23.37.14l-.43-.2c.08,0-.15-.12.52.16.27.11.13.08.38.17,0,0-.23-.12-.23-.15l.09,0a2.39,2.39,0,0,0-.65-.31s.41.17.2.1c-.39-.18-.48-.25-.48-.27l.47.21a8.65,8.65,0,0,1-.88-.48c-.32-.14.58.26.41.19.46.15-.59-.35.07-.11l-.36-.15s.51.2.34.11c.27.12-.08-.05-.16-.1s.13.05.16.08c-.22-.12-.61-.37-.2-.24a6.56,6.56,0,0,1-.63-.31l.42.18c.26.1,0,0,.34.1-.5-.24.4.27,0,.07.35.14-.65-.32-.08-.07,0,0-.47-.25-.07-.1a5.26,5.26,0,0,0,.55.24c-.06-.06-.2-.09-.33-.18l-.17-.09c-.41-.18.07,0-.4-.19.34.14-.19-.13.49.16l.53.23s-.56-.26-.79-.37l.25.1c-.82-.35.08,0-.55-.28.29.1.05-.05.57.15-.24-.13-.53-.27-.34-.22l.27.13c.25.09,0,0-.09-.08.12.06.49.18.79.29-.24-.12-.68-.31-1-.42.82.33-.5-.28.24,0a5.31,5.31,0,0,0,.59.27c.81.33-.58-.29-.18-.15l-.67-.28c.42.16-.37-.21.31.09-.24-.11.24.06-.42-.21.57.19-.29-.25.9.22a1.29,1.29,0,0,0-.33-.16c-.37-.14.25.13,0,0l-.29-.13a4.88,4.88,0,0,1,.75.3c.42.14-1.1-.51-.82-.44s.37.16.34.13l-.45-.22c.12,0,.62.25,1.08.44a1.38,1.38,0,0,0-.38-.21l.58.23c-.42-.17-.27-.13-.38-.18l.11.05c.19.08.08,0,0,0a4.08,4.08,0,0,0-.49-.18l-.38-.2c.45.2.33.11.38.12a4.15,4.15,0,0,0-.38-.18,3.58,3.58,0,0,1,.37.15c.07,0-.23-.09,0,0s.58.24.29.1-.89-.38-.59-.28l.45.21.24.08-.41-.18.2.08c-.43-.19-.12-.09-.6-.3,0,0,.29.1.35.1l0,0c.25.09.1,0-.18-.13l.09,0s0,0-.26-.15c.32.11,1.55.65,1,.41,0,0-.74-.35-1-.46.29.08-.36-.24.29,0l-.36-.17c.18,0-.44-.32.38,0,.17.09.41.18.64.28-.36-.17.39.15-.24-.13-.37-.16-.55-.24-.71-.28s-.17-.16.19,0a3.54,3.54,0,0,1-.39-.17c.59.25.69.27.49.16l-.36-.16.37.15c-.11-.06-.75-.33-.4-.2l.38.16c-.29-.14-.77-.38-.46-.27l.53.21a4.13,4.13,0,0,0-.52-.23,7.17,7.17,0,0,1,.84.28c-1.08-.53-1.09-.63-1-.66l.27.12c.26.09-.47-.21-.28-.14s.56.23.87.37-.45-.23-.57-.3c-.35-.15.22.11-.23-.09-.13-.06.29.08-.24-.15l.82.35-.25-.13c.63.25,1.1.52,1.88.83l-.08-.05c.57.23.62.31.82.35-.26-.13-1-.47-1.27-.56s-1.27-.56-1.21-.58c.32.13.06.06.51.24s-.23-.14-.07-.09c-.21-.07-.74-.31-.84-.37.26.09.5.23.57.23-.31-.14-.53-.26-.75-.33-.7-.31.21.06-.33-.19.5.2,1.13.51,1.39.59-.48-.2-.63-.31-1.34-.6.14,0,.52.21.8.34s-.85-.41.09,0l-.48-.21.55.21s-.64-.32.09,0a2.12,2.12,0,0,0-.54-.26c-.32-.11.36.18-.33-.1.56.23-.06-.06-.24-.15l.28.12A2.31,2.31,0,0,0,624,234l.43.18L624,234c-.2-.12.76.32.65.24l.33.16c-.07,0,.34.13.21.06l-1.16-.52c-.17-.09.45.18,0,0l.47.22a5,5,0,0,0,.65.24,9.22,9.22,0,0,0-.91-.41,3.07,3.07,0,0,1,.53.21c-.13-.08-.42-.18-.66-.3l1,.39.65.3h0c.52.24.41.16,1,.41.09,0-.09-.06-.23-.13-.9-.35-1.2-.55-2-.89-.21-.13,2,.82.73.24-.21-.08-.82-.37-.6-.24s-.81-.36-.46-.25.83.33,1.3.57c-.27-.12-.21-.07-.14,0,.31.12.82.35.83.33a2,2,0,0,0-.5-.25c-.47-.2,0,0-.43-.17-.15-.1.56.2-.26-.16a5.64,5.64,0,0,1-.74-.29l-.18-.1.31.14c.24.06-.56-.25-.46-.25l.62.25c.52.23-.25-.05.6.31,0,0-.39-.2-.16-.12l.16.09s1.17.48.52.17c-.25-.13-.3-.13-.62-.27-.08-.08-.41-.22-.45-.27.62.27.08,0,.71.28-.37-.15-.36-.08.24.18.75.3-.12,0,.63.31,0,0,.76.29,1.24.49a1.68,1.68,0,0,0-.24-.12l-.91-.38c.13,0-.1-.11-.53-.32a7.73,7.73,0,0,1,.71.31c-.12-.09,0-.1.11-.08-.74-.29-.16-.11-.77-.36-.17-.05-.7-.26-1-.41.05,0,.32.14.48.2-.4-.19.65.25,0,0,.22.13.89.39,1.47.64-.31-.16.41.18.42.15a7,7,0,0,1-.66-.38c.56.2,0-.08,0-.12.3.11.94.4,1.06.43s-.71-.29-.4-.19l.13.06c-.15-.07.46.14-.47-.27l.7.31c.07,0-.09-.05-.17-.09l.59.25c.49.19-.06-.07-.07-.1l-.42-.17c-.31-.17.11,0,0-.11l.41.18-.24-.12c.39.17.66.27.33.11l1,.48c-.25-.09-.49-.23-.89-.39s-.26-.07.13.11c.05,0,0,0-.18-.1.57.24.54.25.91.42,0,0,.16,0,0,0,.27.13.31.16.32.19-.22-.11-.35-.14-.51-.22.5.22.64.3.49.26-.58-.23.35.2.18.16-.5-.23-.9-.42-1.1-.52s0,0-.26-.07c.37.17,1,.42,1.17.54l-.37-.16c.18.1.73.34.62.32a.4.4,0,0,0-.28,0l-.37-.16c.79.36.27.19.61.37-.38-.11.32.25-.34,0,.25.2.5.39.33.41l-.54-.25c.39.18-.32-.12-.24-.08.44.17.55.26.88.41-.44-.14,0,.1.37.29l-.37-.16c.69.33.06.11-.07.1a4.07,4.07,0,0,0-.47-.17c.59.28.55.27.91.46,0,0-.18,0-.42-.08.81.45.23.31.7.61l-.44-.18c.9.49,0,.23.45.51l-.75-.33c-.24-.08.17.14.71.36-.24-.07.34.21-.28,0-.15,0,.33.18.43.24-.3-.07-.25,0-.13.08h.05a5.67,5.67,0,0,0-.53-.22c.2.11-.23,0,.67.34-.54-.17.37.29-.34,0,.25.1.29.13.45.21,0,0-.52-.12-.12.09-.13,0-.41-.19-.44-.18s.32.14.45.21c.43.26-.53-.06-.44.05.42.31.14.33.17.47l-.18-.08c.67.33-.74-.22.28.25a2.4,2.4,0,0,1-.44-.16c.47.24-.49-.12.11.19l-.09-.05c-.41-.13.11.14-.26,0l-.31-.15c-.35-.13.74.36-.13,0a3.89,3.89,0,0,0,.41.18c-.38,0,.13.29.29.47-.55-.15-1.46-.62-.84-.29-.17-.07.33.14.15.07.23.13-1-.38-.53-.17s.29.14.62.28c-.36-.1-.85-.3-.46-.09l-.28-.12c.77.38.33.24,1.23.67.07.29.49.72.5,1-.27.14.05.53-.52.54-.76-.26-.74-.25-.47-.07l-.26-.11c.6.26,0,.06.61.32-.15,0,0,.18,0,.26a3.42,3.42,0,0,0-.52-.23l.38.18-.17-.07a5.06,5.06,0,0,0,.57.26c.43.43-.87.12-.8.39-.27-.06-.07.11,0,.21-.87-.19-1.58-.32-1.08.08C627.77,242.51,626.22,241.83,625.89,241.61Z"/><path class="cls-2" d="M629.22,234.83c-.3-.12-.48-.18-.87-.36Z"/><path class="cls-2" d="M625.91,234l-.18-.07s-.27-.13-.11-.07Z"/><path class="cls-2" d="M625.68,234a2.51,2.51,0,0,1-.49-.26Z"/><path class="cls-2" d="M624.52,233.68a1.16,1.16,0,0,1-.34-.15Z"/><path class="cls-2" d="M625.13,233.95a2,2,0,0,1-.31-.11C625,233.93,624.68,233.75,625.13,233.95Z"/><path class="cls-2" d="M624.24,233.86s.24.12-.06,0C624.39,233.95,623.85,233.69,624.24,233.86Z"/><path class="cls-2" d="M624.6,234.15s-.07,0,0,0a2.84,2.84,0,0,1-.34-.15Z"/><polygon class="cls-2" points="624.77 236.74 624.64 236.67 624.91 236.78 624.77 236.74"/><path class="cls-2" d="M624.39,237.67c.16.08-.26-.1-.3-.11S624.42,237.7,624.39,237.67Z"/><polygon class="cls-2" points="625.51 238.74 625.51 238.74 626.05 238.97 625.51 238.74"/><path class="cls-2" d="M305,356.88c-1.2.59.85.23-.74.52A.65.65,0,0,1,305,356.88Z"/><path class="cls-2" d="M652.47,299.4c-4.53.62-9.75-2-14.54-2-.55,0,.29-.8-1-.8-4.71.48-11.66-1.29-17-3l.36-.18c-1-.36-2.41.31-3.51.09,0-.16.38-.19.15-.42-.34.44-2,0-2.56.32-.42-.23-.33-.6-.88-.86l-.7.47c-1.91,1.09-4.3-.52-6.79-.1.13-.11.38-.19.19-.33a44.28,44.28,0,0,1-6.43,0c-2.26,0-4.57-.1-6.75-.07.18-.18.37-.52.12-.75-.25.55-1.6.63-2.77.68-.5-.61-2,.43-3.38,0l.12-.12c-1,.56-1.49-.43-2.33.26l-.62-.49c-.47.8-1.45-.5-2.3-.13l0,.17c-.79.16-1.19-.27-1.93-.13l-.07-.1c-1.72.21-2.71-.25-2.68.39-.59-.51,1.67-.23.74-1-5.66.66-11.46.45-17.14.52-.65-.23-1.06-.29-1.21-.53a12,12,0,0,0-2.64.55c.19,0-.38-.31-.68-.33-1-.2-1.1.75-2.25.51.44-.19.59-.4.43-.63a11.09,11.09,0,0,1-3.38.72c.17-.12.45-.19.39-.39-1.23.62-2.29,0-3.37.38l.39-.39c-1.79-.38-.48.79-2,.59.36-.13.22-.27.28-.42-1.39.75-3.7.56-5.1.93a.15.15,0,0,0,.05-.16,38.79,38.79,0,0,0-4.84.57c-.63-.11.13-.92-1.49-.65.12.74-2.75.54-1.72,1.29a19.17,19.17,0,0,0-4.54.23c.6-.33-.76-.85.39-1l-.92-.37c.1-.31.91,0,.6-.33a18.25,18.25,0,0,1-2.78.44,10.39,10.39,0,0,1-3.66,1.74c.79-.39-.55-.76,0-1l-2.27,1.71c-.57.11-.19-.57-1-.27.07.19-.28.35-.52.54-.23-.06-2.37.48-2.71-.21-.29-.25.92-.27.25-.45-1.07.14-1.08.39-2.15.54l0-.09c-.72,0-2,.57-1.22.87.49,0-.24-.41.51-.29a5.3,5.3,0,0,1-2.73.89c.35-.16.28-.35.4-.57a20.08,20.08,0,0,1-4.41,1.55c0,.35.51-.7.77-.55a8.46,8.46,0,0,0-3.08.46,5.52,5.52,0,0,1-2.83.36c.27-.11.22.46.19.37-1,.12-1-.39-1.63-.1-.11-.28-.79.22-1.43.42-.31.27-.19-.11.37-.24a20.79,20.79,0,0,1-6.65,1.36c.07.19-1.18.92-1.67,1l.11-.48c-.49-.2-1.62.3-1.77-.07-.95.72,3.92-1.12,2.59-.46-.43-.32-1.83,1-1.64.37-1,.17-1.83.84-2.84.56.28,0,.68-.75-.1-.59-1.38.31-.36.28-1.46.61l-.67.32c0,.45-1.24.19-.64.57-.24-.33-2,.62-2-.13l.08-.61c-.59.16-.86.8-1.29,1.14-.09,0-.27-.12-.25-.22.07.89-1.44.21-2,1-1.31-.05-3.18.61-3.88.18a6.47,6.47,0,0,1-2.86,1c.2-.12.5-.21.52-.41-.74-.12-.86.14-1.46.41.11-.16-1.48-.23-2.32-.39-.9.45-.47.85-.51,1.16-.53-.34-1.18-.07-1.84.22a2.54,2.54,0,0,1-2,.38c.3-.2,1.29-.75.46-.78-1.06-.65-1.61,1-3.1,1l.5.63c-.72-.29-2,.89-2,.14-.41.37-1.7.15-1.39.81-2.43,0-5.5,1.66-7.21.75-.3.19-1.15.27-.9.58.64.26.7-.46,1-.24a.4.4,0,0,0-.32.4c-.75,0-1.33.09-.79-.64-1.7,0-1.35,1.54-3.43,1.78,0-.31-.16-.38-.74-.17l-1,.79c-1.33.23-.9-.45-1.06-.93-.67.27-1.53.47-1.75.92l-1-.38c.73.27-.5.44-.79.65l.3-.21c-.18-.17-1,.17-1.34.34.17.27,1,.17,1.49.14-.3.31-.86.41-1.27.78,0-.51-1.22,0-1.78.07s-.6.61-.79.65c-.08-.24-1,.24-.64-.24.19-.14.56.11.86-.2-.47-.07-.53-.51-1.31,0-.59.41.42.89-.9.92.29-.2.3-.41.51-.64l-1.22.07.07.44c-.19-.07-.09-.13-.18-.17-.22.54-1.73.61-1.85,1.19a11.92,11.92,0,0,1-1.88.13l.1-.07a3,3,0,0,0-2.1.79v-.1a4,4,0,0,0-1.62.8c-1,0-.78-1.52-1.66-.67-.94.3-1.26,1.23-.8,1.39-1.79.22-3.51,1.5-5.28,1.31-.19.25,0,.31-.48.56-2.55.58-5.11,2.09-7.36,1.85.67-.4-.08-.44-.18-.68-.48.56-.84-.18-.85.54.18.37.18.57.93.51a13.25,13.25,0,0,1-4.6,1.32c.47,0,.19.26-.1.49-.09-.65-1.21-.38-2,.11v.41l-.66-.21c-.28.22-.09.9-1,.81a.69.69,0,0,0-.37-.32c-.75.59-1.78,1.5-2.81,1.49l-.94-.29c-.37.19-.93.74-.18.66-1.69.2-2.72.49-3.38.19-2.34,2-6.22,3.47-9.38,4.52v-.31c-.93,0-.26.64-.92.66.18-.36-.85-.34-.3-.9-1.31.14-1.38,1-2.12,1.44,0,.4.54-.46.56.05-.09.18-1.77.32-1.75.93-.38-.11-.29-.59-.21-.87l-.64.53c-1.13-.31,1.63-1.88.4-2.33l-.65.33c-.86-.34,1.56-1.3-.21-.88-.64.54-1,1.56-.24,1.56-1.48.71-.23,1.56-1.9,2.11-.57-.16,1.29-.55.81-.89-.94-.16-1.47.81-2.22.91.84-.07.4.71-.06,1-.94,0,.35-.71-.86-.34-.08.39-1.08,1-.06.89-.16.87-1.32.24-1.75,1-.57-.35.78-1.63-.61-1.38.39.4-1.35,1.28-.39,1.73-.56.06-.76-.3-.5-.74-.84,0-1.42,1.57-2,.7l-.06.59c-.29-.07-.66-.07-1.13-.19-.64.24-1.8,1.47-2,.7-.18.16-1.65.69-.88,1,1,0,.9-.78,1.67-.28-.86-.32-1.28.58-1.73,1l-.2-.25c-.27.23-1,.45-1.08.84.17-.26,0-.4-.3-.38l-.16.56c-1.18.71-.6-.65-1.78,0l.8-.7c-.18.15-.76-.09-1.29.28-.07.49-.31,1.13-.39,1.52-.63.44-.49-.33-1,.35l.71-.83c.08-.18-.86-.42-1.79,0-.54.37-1.23,1.3-.21,1.15-.46.19-1.21.2-1-.23-1,.55.31.37-.5,1-.48-.12-1.79-.05-2.64-.15l.68-1-.63.25c.6-.86-.58-.24-.34-1a3,3,0,0,0-1.27.8c1.62.39-.91,1.8-.21,2.47-1.63.92-1.89-1.55-3.16.46.38.09-.21,1.06.78.38-1.11.35-.39,1.12-1.79,1.3.8-.72-1.34-.42-.19-1.46,0,.31.84-.1,1-.27-.57-.13-.25-.86-1.34-.41-.64.35-1.55.75-1.24,1.12s1-.47.77.18c-1.26.71-1.78.09-2,1.15.81-.41,1.22,0,1.34.31l-.9.6.06-.39c-1.66.43-.23.75-1.78,1.3l-1-.32c.14-.68,2.31-.68,1.68-1.43-1,.37-1.15.95-2.17,1.11.18-.16.45-.3.62-.46-.37.12-1.19-.88-2.32.38-.62.56-.06.39.05.71-1.54.76-1.88,1.28-2.88,1.76-.05-.72-1.83.69-1-.42.67.15,3-.84,3.26-1.67-.89-.5,1.29-.41,1.32-1.31-1.28.51-1.52-.25-1.93-.64a2.25,2.25,0,0,0-.8.62c0,.51.5.32.72.77a7.24,7.24,0,0,0-3.33,2.05c-.57,0-.6-.54-.06-.82a34.32,34.32,0,0,1-5.13,2.05c1.34.31-1.72.92-.76,1.23.93-.19,1.89,0,1.55.56-.56.18-.12-.33-.41-.39-.52.69-1.33-.21-1.74.71,1.45-.88-.07-1,0-1.72-1,.79-.12-.43-1.22,0a23.52,23.52,0,0,1-3.43,2.23c-1.78.09-3.94,1.59-5.32,2.18-.85,0-.62-.86-1.45-.65-.92.38,1,.43-.52.68l.08-.18c-.35.32-2.69.56-2.73,1.66l.14-.88c-.28,0-.46.29-.64.45-.1-.23-.48-.32-.13-.64-1-.16-1.75.78-2.67,1.16l.76.19c-1.46.94-2.68.94-4.15,1.67l-.11-.43-.82.59c.07-.49-.86-.43-1.22.09l2-1.92c.75,0-.53.77,0,1s1.86-.43,1.94-.92a1.73,1.73,0,0,0-.91.58c-.4-.51.43-.8.69-1.34-.27.13-.75.11-.74.32a4.73,4.73,0,0,1,1.91-1.13c-.54.47.48.22.31.48-.12-.54.7-1,1.9-1.34,1,.26,2-1.22,3.38-1.59a4.91,4.91,0,0,1-1.58,1.94c.93-.07.92-.38,1.86-.46a3.27,3.27,0,0,1,1.29-1.91l.21.35c.9-.59.68-1.15,2-1.55,2.21-.68,4.41-1.58,6.05-2.2l.22.35c.58-1.17,2.9-1.54,4-2.4,2.22-.5,4.35-2.23,5.69-2a92.7,92.7,0,0,1,10.48-4.85l-.41.81c.52-.68.57.13,1.21-.22-.95-.12.69-.95,1-1.47,1.87-.27,3.85-1.63,5.21-2.6l.21.35c1.25-1.3,3.32-1.4,5.27-2a1.72,1.72,0,0,0,1.32,0,10.34,10.34,0,0,1,2.72-2.15,25,25,0,0,1,4.18-1.18c3.82-2.54,8.36-3.44,12.54-5.57l.48.33c3.9-2.49,9.42-3.53,12.92-5.19l-.09.89c1.22-.14,2.54-1.07,2.07-1.52,1.23-.14,2.74-1.33,3.68-.93,1.22-.25,1.32-.83,2.26-1.26a24,24,0,0,0,5.47-1.72l-.56.13c-.19.25-.11.59.46.46.75-.51,3.13-.72,2-1.41,2.56-.18,5.44-2.11,8-2.09-.27-.2.3-.42.49-.67,2.1-.64,4.45-.78,6-1.72.37,0-.41.59.46.36.48-.25-.08-.34.5-.67,3.26-1.5,7.07-1.4,10.15-2.38,2.7-1,5.52-1.81,8.32-2.57l2.09-.56,2.09-.48,4.09-1,0,.2c1.62-1.15,4.38-.24,5.56-1.67.47.08,1.64-.29,1.41.15,1.31-.85,4.1-.46,6-1.58a1,1,0,0,0-.5.22c2.18,0,3.92-1,6.21-1-.21.13-.6.27-.63.47.93.2,1.86-1.21,2.52-.38.49-.11.26-.53,0-.45A61.51,61.51,0,0,0,480.8,297l3.77-1c1.26-.3,2.53-.57,3.79-.84,3.74,0,.49,1.53,3.24.37.26.14.11-.38.18-.2,1.07-.44,1.9.76,2.59.15-.41-.52.46-.4.43-.75,2.29,0,2.81.45,4.5-.27l-.09.32c1.93-1.16,4.37-1.17,6-2.33,5.71-.8,11.28-1.67,16.83-2.53s11.12-1.29,16.73-1.83c1.39-.08,2.77-.22,4.15-.27l4.15-.17,8.28-.38,4.15-.17,2.08-.08,2.09,0c2.79,0,5.59.13,8.42.27,2.64.81,2.84.79,5.75.48-.12.13-.3.16-.11.28.16-.65,2-.05,2.34-.68,4.17.26,8,.33,12.33.52-.68,0-1.05.55-.24.55l.87-.37.13.19c.56-.07,1.18-.36.62-.6q2,0,4.05.07a39.88,39.88,0,0,1,4,.29c2.67.31,5.33.68,8,1.06l7.91,1.14c1.32.15,2.63.39,3.93.61s2.62.42,3.93.6a64.32,64.32,0,0,0,8.74,1.22c3.95,1,7.62,2.21,11.36,3.19a91.11,91.11,0,0,0,11.6,2.33S655.85,299.7,652.47,299.4Z"/><path class="cls-2" d="M306.46,356.26c.38.21,1.32.05.78.72C307,356.73,306.47,356.57,306.46,356.26Z"/><path class="cls-2" d="M330.85,350.21c0-.1.38,0,.47,0-.27.14-.44.51-.73.44C330.88,350.52,330.77,350.4,330.85,350.21Z"/><path class="cls-2" d="M336.81,348c0,.31-1.15,1-1.88,1.38Z"/><path class="cls-2" d="M342.75,346.79c.57,0,.49.21-.15.47C342.49,347.13,342.67,347,342.75,346.79Z"/><path class="cls-2" d="M342.88,346a1.47,1.47,0,0,1,1-.07C343.8,345.72,342.92,346.53,342.88,346Z"/><path class="cls-2" d="M355.09,341.91c.28-.14.8-.61,1.19-.42C355.89,341.4,355,342.39,355.09,341.91Z"/><path class="cls-2" d="M360.46,339.31a.83.83,0,0,0,.46-.19c.38,0,.11.33-.16.46Z"/><polygon class="cls-2" points="463.53 305.81 462.94 306.1 462.97 305.8 463.53 305.81"/><path class="cls-2" d="M510.32,297.5c.61-.26.48.22.59.25C510.34,297.85,511.07,297.36,510.32,297.5Z"/><polygon class="cls-2" points="535.68 293.39 535.49 293.41 535.51 292.81 535.68 293.39"/></g></svg>